<?xml version="1.0" encoding="utf-8"?>
<svg xmlns="http://www.w3.org/2000/svg" xmlns:xlink="http://www.w3.org/1999/xlink" width="400" height="300" viewBox="0 0 1600 1200">
<defs>
  <clipPath id="clip780">
    <rect x="0" y="0" width="1600" height="1200"/>
  </clipPath>
</defs>
<path clip-path="url(#clip780)" d="M0 1200 L1600 1200 L1600 0 L0 0  Z" fill="#ffffff" fill-rule="evenodd" fill-opacity="1"/>
<defs>
  <clipPath id="clip781">
    <rect x="320" y="0" width="1121" height="1121"/>
  </clipPath>
</defs>
<path clip-path="url(#clip780)" d="M274.816 1016.92 L1552.76 1016.92 L1552.76 131.032 L274.816 131.032  Z" fill="#ffffff" fill-rule="evenodd" fill-opacity="1"/>
<defs>
  <clipPath id="clip782">
    <rect x="274" y="131" width="1279" height="887"/>
  </clipPath>
</defs>
<polyline clip-path="url(#clip782)" style="stroke:#000000; stroke-linecap:round; stroke-linejoin:round; stroke-width:2; stroke-opacity:0.1; fill:none" points="310.984,1016.92 310.984,131.032 "/>
<polyline clip-path="url(#clip782)" style="stroke:#000000; stroke-linecap:round; stroke-linejoin:round; stroke-width:2; stroke-opacity:0.1; fill:none" points="552.104,1016.92 552.104,131.032 "/>
<polyline clip-path="url(#clip782)" style="stroke:#000000; stroke-linecap:round; stroke-linejoin:round; stroke-width:2; stroke-opacity:0.1; fill:none" points="793.225,1016.92 793.225,131.032 "/>
<polyline clip-path="url(#clip782)" style="stroke:#000000; stroke-linecap:round; stroke-linejoin:round; stroke-width:2; stroke-opacity:0.1; fill:none" points="1034.35,1016.92 1034.35,131.032 "/>
<polyline clip-path="url(#clip782)" style="stroke:#000000; stroke-linecap:round; stroke-linejoin:round; stroke-width:2; stroke-opacity:0.1; fill:none" points="1275.47,1016.92 1275.47,131.032 "/>
<polyline clip-path="url(#clip782)" style="stroke:#000000; stroke-linecap:round; stroke-linejoin:round; stroke-width:2; stroke-opacity:0.1; fill:none" points="1516.59,1016.92 1516.59,131.032 "/>
<polyline clip-path="url(#clip782)" style="stroke:#000000; stroke-linecap:round; stroke-linejoin:round; stroke-width:2; stroke-opacity:0.1; fill:none" points="274.816,991.848 1552.76,991.848 "/>
<polyline clip-path="url(#clip782)" style="stroke:#000000; stroke-linecap:round; stroke-linejoin:round; stroke-width:2; stroke-opacity:0.1; fill:none" points="274.816,703.508 1552.76,703.508 "/>
<polyline clip-path="url(#clip782)" style="stroke:#000000; stroke-linecap:round; stroke-linejoin:round; stroke-width:2; stroke-opacity:0.1; fill:none" points="274.816,415.169 1552.76,415.169 "/>
<polyline clip-path="url(#clip780)" style="stroke:#000000; stroke-linecap:round; stroke-linejoin:round; stroke-width:4; stroke-opacity:1; fill:none" points="274.816,1016.92 1552.76,1016.92 "/>
<polyline clip-path="url(#clip780)" style="stroke:#000000; stroke-linecap:round; stroke-linejoin:round; stroke-width:4; stroke-opacity:1; fill:none" points="310.984,1016.92 310.984,998.022 "/>
<polyline clip-path="url(#clip780)" style="stroke:#000000; stroke-linecap:round; stroke-linejoin:round; stroke-width:4; stroke-opacity:1; fill:none" points="552.104,1016.92 552.104,998.022 "/>
<polyline clip-path="url(#clip780)" style="stroke:#000000; stroke-linecap:round; stroke-linejoin:round; stroke-width:4; stroke-opacity:1; fill:none" points="793.225,1016.92 793.225,998.022 "/>
<polyline clip-path="url(#clip780)" style="stroke:#000000; stroke-linecap:round; stroke-linejoin:round; stroke-width:4; stroke-opacity:1; fill:none" points="1034.35,1016.92 1034.35,998.022 "/>
<polyline clip-path="url(#clip780)" style="stroke:#000000; stroke-linecap:round; stroke-linejoin:round; stroke-width:4; stroke-opacity:1; fill:none" points="1275.47,1016.92 1275.47,998.022 "/>
<polyline clip-path="url(#clip780)" style="stroke:#000000; stroke-linecap:round; stroke-linejoin:round; stroke-width:4; stroke-opacity:1; fill:none" points="1516.59,1016.92 1516.59,998.022 "/>
<path clip-path="url(#clip780)" d="M300.625 1054.29 Q303.981 1055 305.856 1057.27 Q307.754 1059.54 307.754 1062.87 Q307.754 1067.99 304.236 1070.79 Q300.717 1073.59 294.236 1073.59 Q292.06 1073.59 289.745 1073.15 Q287.454 1072.73 285 1071.88 L285 1067.36 Q286.944 1068.5 289.259 1069.08 Q291.574 1069.66 294.097 1069.66 Q298.495 1069.66 300.787 1067.92 Q303.102 1066.18 303.102 1062.87 Q303.102 1059.82 300.949 1058.11 Q298.819 1056.37 295 1056.37 L290.972 1056.37 L290.972 1052.53 L295.185 1052.53 Q298.634 1052.53 300.463 1051.16 Q302.292 1049.77 302.292 1047.18 Q302.292 1044.52 300.393 1043.11 Q298.518 1041.67 295 1041.67 Q293.079 1041.67 290.88 1042.09 Q288.681 1042.5 286.042 1043.38 L286.042 1039.22 Q288.704 1038.48 291.018 1038.11 Q293.356 1037.73 295.417 1037.73 Q300.741 1037.73 303.842 1040.17 Q306.944 1042.57 306.944 1046.69 Q306.944 1049.56 305.301 1051.55 Q303.657 1053.52 300.625 1054.29 Z" fill="#000000" fill-rule="nonzero" fill-opacity="1" /><path clip-path="url(#clip780)" d="M320.648 1068.98 L336.967 1068.98 L336.967 1072.92 L315.023 1072.92 L315.023 1068.98 Q317.685 1066.23 322.268 1061.6 Q326.875 1056.95 328.055 1055.61 Q330.301 1053.08 331.18 1051.35 Q332.083 1049.59 332.083 1047.9 Q332.083 1045.14 330.139 1043.41 Q328.217 1041.67 325.116 1041.67 Q322.916 1041.67 320.463 1042.43 Q318.032 1043.2 315.254 1044.75 L315.254 1040.03 Q318.079 1038.89 320.532 1038.31 Q322.986 1037.73 325.023 1037.73 Q330.393 1037.73 333.588 1040.42 Q336.782 1043.11 336.782 1047.6 Q336.782 1049.73 335.972 1051.65 Q335.185 1053.54 333.078 1056.14 Q332.5 1056.81 329.398 1060.03 Q326.296 1063.22 320.648 1068.98 Z" fill="#000000" fill-rule="nonzero" fill-opacity="1" /><path clip-path="url(#clip780)" d="M537.267 1053.78 Q534.118 1053.78 532.267 1055.93 Q530.438 1058.08 530.438 1061.83 Q530.438 1065.56 532.267 1067.73 Q534.118 1069.89 537.267 1069.89 Q540.415 1069.89 542.243 1067.73 Q544.095 1065.56 544.095 1061.83 Q544.095 1058.08 542.243 1055.93 Q540.415 1053.78 537.267 1053.78 M546.549 1039.12 L546.549 1043.38 Q544.79 1042.55 542.984 1042.11 Q541.202 1041.67 539.442 1041.67 Q534.813 1041.67 532.359 1044.79 Q529.929 1047.92 529.581 1054.24 Q530.947 1052.23 533.007 1051.16 Q535.068 1050.07 537.544 1050.07 Q542.753 1050.07 545.762 1053.24 Q548.794 1056.39 548.794 1061.83 Q548.794 1067.16 545.646 1070.37 Q542.498 1073.59 537.267 1073.59 Q531.271 1073.59 528.1 1069.01 Q524.929 1064.4 524.929 1055.67 Q524.929 1047.48 528.818 1042.62 Q532.706 1037.73 539.257 1037.73 Q541.017 1037.73 542.799 1038.08 Q544.605 1038.43 546.549 1039.12 Z" fill="#000000" fill-rule="nonzero" fill-opacity="1" /><path clip-path="url(#clip780)" d="M569.697 1042.43 L557.891 1060.88 L569.697 1060.88 L569.697 1042.43 M568.47 1038.36 L574.35 1038.36 L574.35 1060.88 L579.28 1060.88 L579.28 1064.77 L574.35 1064.77 L574.35 1072.92 L569.697 1072.92 L569.697 1064.77 L554.095 1064.77 L554.095 1060.26 L568.47 1038.36 Z" fill="#000000" fill-rule="nonzero" fill-opacity="1" /><path clip-path="url(#clip780)" d="M752.878 1068.98 L760.517 1068.98 L760.517 1042.62 L752.207 1044.29 L752.207 1040.03 L760.471 1038.36 L765.147 1038.36 L765.147 1068.98 L772.786 1068.98 L772.786 1072.92 L752.878 1072.92 L752.878 1068.98 Z" fill="#000000" fill-rule="nonzero" fill-opacity="1" /><path clip-path="url(#clip780)" d="M786.258 1068.98 L802.577 1068.98 L802.577 1072.92 L780.633 1072.92 L780.633 1068.98 Q783.295 1066.23 787.878 1061.6 Q792.485 1056.95 793.665 1055.61 Q795.91 1053.08 796.79 1051.35 Q797.693 1049.59 797.693 1047.9 Q797.693 1045.14 795.748 1043.41 Q793.827 1041.67 790.725 1041.67 Q788.526 1041.67 786.073 1042.43 Q783.642 1043.2 780.864 1044.75 L780.864 1040.03 Q783.688 1038.89 786.142 1038.31 Q788.596 1037.73 790.633 1037.73 Q796.003 1037.73 799.197 1040.42 Q802.392 1043.11 802.392 1047.6 Q802.392 1049.73 801.582 1051.65 Q800.795 1053.54 798.688 1056.14 Q798.11 1056.81 795.008 1060.03 Q791.906 1063.22 786.258 1068.98 Z" fill="#000000" fill-rule="nonzero" fill-opacity="1" /><path clip-path="url(#clip780)" d="M822.392 1056.51 Q819.058 1056.51 817.137 1058.29 Q815.239 1060.07 815.239 1063.2 Q815.239 1066.32 817.137 1068.11 Q819.058 1069.89 822.392 1069.89 Q825.725 1069.89 827.646 1068.11 Q829.568 1066.3 829.568 1063.2 Q829.568 1060.07 827.646 1058.29 Q825.748 1056.51 822.392 1056.51 M817.716 1054.52 Q814.707 1053.78 813.017 1051.72 Q811.35 1049.66 811.35 1046.69 Q811.35 1042.55 814.29 1040.14 Q817.253 1037.73 822.392 1037.73 Q827.554 1037.73 830.494 1040.14 Q833.433 1042.55 833.433 1046.69 Q833.433 1049.66 831.744 1051.72 Q830.077 1053.78 827.091 1054.52 Q830.47 1055.3 832.345 1057.6 Q834.244 1059.89 834.244 1063.2 Q834.244 1068.22 831.165 1070.91 Q828.109 1073.59 822.392 1073.59 Q816.674 1073.59 813.596 1070.91 Q810.54 1068.22 810.54 1063.2 Q810.54 1059.89 812.438 1057.6 Q814.336 1055.3 817.716 1054.52 M816.003 1047.13 Q816.003 1049.82 817.67 1051.32 Q819.359 1052.83 822.392 1052.83 Q825.401 1052.83 827.091 1051.32 Q828.804 1049.82 828.804 1047.13 Q828.804 1044.45 827.091 1042.94 Q825.401 1041.44 822.392 1041.44 Q819.359 1041.44 817.67 1042.94 Q816.003 1044.45 816.003 1047.13 Z" fill="#000000" fill-rule="nonzero" fill-opacity="1" /><path clip-path="url(#clip780)" d="M997.957 1068.98 L1014.28 1068.98 L1014.28 1072.92 L992.332 1072.92 L992.332 1068.98 Q994.994 1066.23 999.578 1061.6 Q1004.18 1056.95 1005.36 1055.61 Q1007.61 1053.08 1008.49 1051.35 Q1009.39 1049.59 1009.39 1047.9 Q1009.39 1045.14 1007.45 1043.41 Q1005.53 1041.67 1002.42 1041.67 Q1000.23 1041.67 997.772 1042.43 Q995.342 1043.2 992.564 1044.75 L992.564 1040.03 Q995.388 1038.89 997.842 1038.31 Q1000.3 1037.73 1002.33 1037.73 Q1007.7 1037.73 1010.9 1040.42 Q1014.09 1043.11 1014.09 1047.6 Q1014.09 1049.73 1013.28 1051.65 Q1012.49 1053.54 1010.39 1056.14 Q1009.81 1056.81 1006.71 1060.03 Q1003.61 1063.22 997.957 1068.98 Z" fill="#000000" fill-rule="nonzero" fill-opacity="1" /><path clip-path="url(#clip780)" d="M1024.14 1038.36 L1042.49 1038.36 L1042.49 1042.3 L1028.42 1042.3 L1028.42 1050.77 Q1029.44 1050.42 1030.46 1050.26 Q1031.48 1050.07 1032.49 1050.07 Q1038.28 1050.07 1041.66 1053.24 Q1045.04 1056.42 1045.04 1061.83 Q1045.04 1067.41 1041.57 1070.51 Q1038.1 1073.59 1031.78 1073.59 Q1029.6 1073.59 1027.33 1073.22 Q1025.09 1072.85 1022.68 1072.11 L1022.68 1067.41 Q1024.76 1068.54 1026.99 1069.1 Q1029.21 1069.66 1031.68 1069.66 Q1035.69 1069.66 1038.03 1067.55 Q1040.36 1065.44 1040.36 1061.83 Q1040.36 1058.22 1038.03 1056.11 Q1035.69 1054.01 1031.68 1054.01 Q1029.81 1054.01 1027.93 1054.42 Q1026.08 1054.84 1024.14 1055.72 L1024.14 1038.36 Z" fill="#000000" fill-rule="nonzero" fill-opacity="1" /><path clip-path="url(#clip780)" d="M1064.83 1053.78 Q1061.68 1053.78 1059.83 1055.93 Q1058 1058.08 1058 1061.83 Q1058 1065.56 1059.83 1067.73 Q1061.68 1069.89 1064.83 1069.89 Q1067.98 1069.89 1069.81 1067.73 Q1071.66 1065.56 1071.66 1061.83 Q1071.66 1058.08 1069.81 1055.93 Q1067.98 1053.78 1064.83 1053.78 M1074.11 1039.12 L1074.11 1043.38 Q1072.36 1042.55 1070.55 1042.11 Q1068.77 1041.67 1067.01 1041.67 Q1062.38 1041.67 1059.92 1044.79 Q1057.49 1047.92 1057.15 1054.24 Q1058.51 1052.23 1060.57 1051.16 Q1062.63 1050.07 1065.11 1050.07 Q1070.32 1050.07 1073.33 1053.24 Q1076.36 1056.39 1076.36 1061.83 Q1076.36 1067.16 1073.21 1070.37 Q1070.06 1073.59 1064.83 1073.59 Q1058.84 1073.59 1055.67 1069.01 Q1052.49 1064.4 1052.49 1055.67 Q1052.49 1047.48 1056.38 1042.62 Q1060.27 1037.73 1066.82 1037.73 Q1068.58 1037.73 1070.36 1038.08 Q1072.17 1038.43 1074.11 1039.12 Z" fill="#000000" fill-rule="nonzero" fill-opacity="1" /><path clip-path="url(#clip780)" d="M1235.88 1038.36 L1254.24 1038.36 L1254.24 1042.3 L1240.17 1042.3 L1240.17 1050.77 Q1241.18 1050.42 1242.2 1050.26 Q1243.22 1050.07 1244.24 1050.07 Q1250.03 1050.07 1253.41 1053.24 Q1256.79 1056.42 1256.79 1061.83 Q1256.79 1067.41 1253.31 1070.51 Q1249.84 1073.59 1243.52 1073.59 Q1241.35 1073.59 1239.08 1073.22 Q1236.83 1072.85 1234.43 1072.11 L1234.43 1067.41 Q1236.51 1068.54 1238.73 1069.1 Q1240.95 1069.66 1243.43 1069.66 Q1247.43 1069.66 1249.77 1067.55 Q1252.11 1065.44 1252.11 1061.83 Q1252.11 1058.22 1249.77 1056.11 Q1247.43 1054.01 1243.43 1054.01 Q1241.56 1054.01 1239.68 1054.42 Q1237.83 1054.84 1235.88 1055.72 L1235.88 1038.36 Z" fill="#000000" fill-rule="nonzero" fill-opacity="1" /><path clip-path="url(#clip780)" d="M1266.81 1068.98 L1274.45 1068.98 L1274.45 1042.62 L1266.14 1044.29 L1266.14 1040.03 L1274.4 1038.36 L1279.08 1038.36 L1279.08 1068.98 L1286.72 1068.98 L1286.72 1072.92 L1266.81 1072.92 L1266.81 1068.98 Z" fill="#000000" fill-rule="nonzero" fill-opacity="1" /><path clip-path="url(#clip780)" d="M1300.19 1068.98 L1316.51 1068.98 L1316.51 1072.92 L1294.56 1072.92 L1294.56 1068.98 Q1297.23 1066.23 1301.81 1061.6 Q1306.42 1056.95 1307.6 1055.61 Q1309.84 1053.08 1310.72 1051.35 Q1311.62 1049.59 1311.62 1047.9 Q1311.62 1045.14 1309.68 1043.41 Q1307.76 1041.67 1304.66 1041.67 Q1302.46 1041.67 1300 1042.43 Q1297.57 1043.2 1294.8 1044.75 L1294.8 1040.03 Q1297.62 1038.89 1300.07 1038.31 Q1302.53 1037.73 1304.56 1037.73 Q1309.93 1037.73 1313.13 1040.42 Q1316.32 1043.11 1316.32 1047.6 Q1316.32 1049.73 1315.51 1051.65 Q1314.73 1053.54 1312.62 1056.14 Q1312.04 1056.81 1308.94 1060.03 Q1305.84 1063.22 1300.19 1068.98 Z" fill="#000000" fill-rule="nonzero" fill-opacity="1" /><path clip-path="url(#clip780)" d="M1460.87 1068.98 L1468.51 1068.98 L1468.51 1042.62 L1460.2 1044.29 L1460.2 1040.03 L1468.46 1038.36 L1473.14 1038.36 L1473.14 1068.98 L1480.78 1068.98 L1480.78 1072.92 L1460.87 1072.92 L1460.87 1068.98 Z" fill="#000000" fill-rule="nonzero" fill-opacity="1" /><path clip-path="url(#clip780)" d="M1500.22 1041.44 Q1496.61 1041.44 1494.78 1045 Q1492.98 1048.54 1492.98 1055.67 Q1492.98 1062.78 1494.78 1066.35 Q1496.61 1069.89 1500.22 1069.89 Q1503.86 1069.89 1505.66 1066.35 Q1507.49 1062.78 1507.49 1055.67 Q1507.49 1048.54 1505.66 1045 Q1503.86 1041.44 1500.22 1041.44 M1500.22 1037.73 Q1506.03 1037.73 1509.09 1042.34 Q1512.17 1046.92 1512.17 1055.67 Q1512.17 1064.4 1509.09 1069.01 Q1506.03 1073.59 1500.22 1073.59 Q1494.41 1073.59 1491.33 1069.01 Q1488.28 1064.4 1488.28 1055.67 Q1488.28 1046.92 1491.33 1042.34 Q1494.41 1037.73 1500.22 1037.73 Z" fill="#000000" fill-rule="nonzero" fill-opacity="1" /><path clip-path="url(#clip780)" d="M1524.41 1068.98 L1540.73 1068.98 L1540.73 1072.92 L1518.79 1072.92 L1518.79 1068.98 Q1521.45 1066.23 1526.03 1061.6 Q1530.64 1056.95 1531.82 1055.61 Q1534.06 1053.08 1534.94 1051.35 Q1535.85 1049.59 1535.85 1047.9 Q1535.85 1045.14 1533.9 1043.41 Q1531.98 1041.67 1528.88 1041.67 Q1526.68 1041.67 1524.23 1042.43 Q1521.8 1043.2 1519.02 1044.75 L1519.02 1040.03 Q1521.84 1038.89 1524.3 1038.31 Q1526.75 1037.73 1528.79 1037.73 Q1534.16 1037.73 1537.35 1040.42 Q1540.55 1043.11 1540.55 1047.6 Q1540.55 1049.73 1539.74 1051.65 Q1538.95 1053.54 1536.84 1056.14 Q1536.26 1056.81 1533.16 1060.03 Q1530.06 1063.22 1524.41 1068.98 Z" fill="#000000" fill-rule="nonzero" fill-opacity="1" /><path clip-path="url(#clip780)" d="M1563.39 1042.43 L1551.59 1060.88 L1563.39 1060.88 L1563.39 1042.43 M1562.17 1038.36 L1568.05 1038.36 L1568.05 1060.88 L1572.98 1060.88 L1572.98 1064.77 L1568.05 1064.77 L1568.05 1072.92 L1563.39 1072.92 L1563.39 1064.77 L1547.79 1064.77 L1547.79 1060.26 L1562.17 1038.36 Z" fill="#000000" fill-rule="nonzero" fill-opacity="1" /><path clip-path="url(#clip780)" d="M695.331 1128.27 L695.331 1149.78 L689.474 1149.78 L689.474 1128.46 Q689.474 1123.4 687.501 1120.88 Q685.527 1118.37 681.581 1118.37 Q676.838 1118.37 674.101 1121.39 Q671.364 1124.42 671.364 1129.64 L671.364 1149.78 L665.475 1149.78 L665.475 1114.14 L671.364 1114.14 L671.364 1119.67 Q673.464 1116.46 676.297 1114.87 Q679.162 1113.28 682.886 1113.28 Q689.029 1113.28 692.18 1117.1 Q695.331 1120.88 695.331 1128.27 Z" fill="#000000" fill-rule="nonzero" fill-opacity="1" /><path clip-path="url(#clip780)" d="M741.8 1100.32 Q737.535 1107.64 735.466 1114.8 Q733.397 1121.97 733.397 1129.32 Q733.397 1136.67 735.466 1143.9 Q737.567 1151.09 741.8 1158.38 L736.708 1158.38 Q731.933 1150.9 729.546 1143.67 Q727.191 1136.45 727.191 1129.32 Q727.191 1122.22 729.546 1115.03 Q731.902 1107.83 736.708 1100.32 L741.8 1100.32 Z" fill="#000000" fill-rule="nonzero" fill-opacity="1" /><path clip-path="url(#clip780)" d="M783.655 1130.5 L783.655 1133.36 L756.728 1133.36 Q757.11 1139.41 760.356 1142.59 Q763.635 1145.74 769.459 1145.74 Q772.833 1145.74 775.984 1144.91 Q779.167 1144.09 782.286 1142.43 L782.286 1147.97 Q779.135 1149.31 775.825 1150.01 Q772.515 1150.71 769.109 1150.71 Q760.579 1150.71 755.582 1145.74 Q750.617 1140.78 750.617 1132.31 Q750.617 1123.56 755.327 1118.43 Q760.07 1113.28 768.091 1113.28 Q775.284 1113.28 779.453 1117.92 Q783.655 1122.54 783.655 1130.5 M777.798 1128.78 Q777.735 1123.97 775.093 1121.11 Q772.483 1118.24 768.154 1118.24 Q763.253 1118.24 760.293 1121.01 Q757.364 1123.78 756.919 1128.81 L777.798 1128.78 M772.165 1097.65 L778.499 1097.65 L768.122 1109.62 L763.253 1109.62 L772.165 1097.65 Z" fill="#000000" fill-rule="nonzero" fill-opacity="1" /><path clip-path="url(#clip780)" d="M818.921 1115.5 L818.921 1120.98 Q816.438 1119.61 813.924 1118.94 Q811.441 1118.24 808.895 1118.24 Q803.197 1118.24 800.046 1121.87 Q796.895 1125.47 796.895 1131.99 Q796.895 1138.52 800.046 1142.14 Q803.197 1145.74 808.895 1145.74 Q811.441 1145.74 813.924 1145.07 Q816.438 1144.37 818.921 1143 L818.921 1148.42 Q816.47 1149.56 813.828 1150.13 Q811.218 1150.71 808.258 1150.71 Q800.206 1150.71 795.463 1145.65 Q790.721 1140.59 790.721 1131.99 Q790.721 1123.27 795.495 1118.27 Q800.301 1113.28 808.64 1113.28 Q811.346 1113.28 813.924 1113.85 Q816.502 1114.39 818.921 1115.5 Z" fill="#000000" fill-rule="nonzero" fill-opacity="1" /><path clip-path="url(#clip780)" d="M858.738 1128.27 L858.738 1149.78 L852.882 1149.78 L852.882 1128.46 Q852.882 1123.4 850.908 1120.88 Q848.935 1118.37 844.988 1118.37 Q840.246 1118.37 837.509 1121.39 Q834.771 1124.42 834.771 1129.64 L834.771 1149.78 L828.883 1149.78 L828.883 1100.26 L834.771 1100.26 L834.771 1119.67 Q836.872 1116.46 839.705 1114.87 Q842.569 1113.28 846.293 1113.28 Q852.436 1113.28 855.587 1117.1 Q858.738 1120.88 858.738 1128.27 Z" fill="#000000" fill-rule="nonzero" fill-opacity="1" /><path clip-path="url(#clip780)" d="M900.911 1130.5 L900.911 1133.36 L873.984 1133.36 Q874.366 1139.41 877.613 1142.59 Q880.891 1145.74 886.716 1145.74 Q890.089 1145.74 893.24 1144.91 Q896.423 1144.09 899.542 1142.43 L899.542 1147.97 Q896.391 1149.31 893.081 1150.01 Q889.771 1150.71 886.365 1150.71 Q877.835 1150.71 872.838 1145.74 Q867.873 1140.78 867.873 1132.31 Q867.873 1123.56 872.584 1118.43 Q877.326 1113.28 885.347 1113.28 Q892.54 1113.28 896.71 1117.92 Q900.911 1122.54 900.911 1130.5 M895.055 1128.78 Q894.991 1123.97 892.349 1121.11 Q889.739 1118.24 885.411 1118.24 Q880.509 1118.24 877.549 1121.01 Q874.621 1123.78 874.175 1128.81 L895.055 1128.78 Z" fill="#000000" fill-rule="nonzero" fill-opacity="1" /><path clip-path="url(#clip780)" d="M910.523 1100.26 L916.38 1100.26 L916.38 1149.78 L910.523 1149.78 L910.523 1100.26 Z" fill="#000000" fill-rule="nonzero" fill-opacity="1" /><path clip-path="url(#clip780)" d="M928.634 1100.26 L934.49 1100.26 L934.49 1149.78 L928.634 1149.78 L928.634 1100.26 Z" fill="#000000" fill-rule="nonzero" fill-opacity="1" /><path clip-path="url(#clip780)" d="M977.236 1130.5 L977.236 1133.36 L950.309 1133.36 Q950.691 1139.41 953.937 1142.59 Q957.216 1145.74 963.04 1145.74 Q966.414 1145.74 969.565 1144.91 Q972.748 1144.09 975.867 1142.43 L975.867 1147.97 Q972.716 1149.31 969.406 1150.01 Q966.096 1150.71 962.69 1150.71 Q954.16 1150.71 949.163 1145.74 Q944.198 1140.78 944.198 1132.31 Q944.198 1123.56 948.908 1118.43 Q953.651 1113.28 961.672 1113.28 Q968.865 1113.28 973.035 1117.92 Q977.236 1122.54 977.236 1130.5 M971.379 1128.78 Q971.316 1123.97 968.674 1121.11 Q966.064 1118.24 961.735 1118.24 Q956.834 1118.24 953.874 1121.01 Q950.946 1123.78 950.5 1128.81 L971.379 1128.78 Z" fill="#000000" fill-rule="nonzero" fill-opacity="1" /><path clip-path="url(#clip780)" d="M1007.57 1100.26 L1013.42 1100.26 L1013.42 1149.78 L1007.57 1149.78 L1007.57 1100.26 Z" fill="#000000" fill-rule="nonzero" fill-opacity="1" /><path clip-path="url(#clip780)" d="M1039.49 1118.24 Q1034.78 1118.24 1032.04 1121.93 Q1029.31 1125.59 1029.31 1131.99 Q1029.31 1138.39 1032.01 1142.08 Q1034.75 1145.74 1039.49 1145.74 Q1044.17 1145.74 1046.91 1142.05 Q1049.65 1138.36 1049.65 1131.99 Q1049.65 1125.66 1046.91 1121.97 Q1044.17 1118.24 1039.49 1118.24 M1039.49 1113.28 Q1047.13 1113.28 1051.49 1118.24 Q1055.85 1123.21 1055.85 1131.99 Q1055.85 1140.74 1051.49 1145.74 Q1047.13 1150.71 1039.49 1150.71 Q1031.82 1150.71 1027.46 1145.74 Q1023.13 1140.74 1023.13 1131.99 Q1023.13 1123.21 1027.46 1118.24 Q1031.82 1113.28 1039.49 1113.28 Z" fill="#000000" fill-rule="nonzero" fill-opacity="1" /><path clip-path="url(#clip780)" d="M1089.02 1131.55 Q1089.02 1125.18 1086.38 1121.68 Q1083.77 1118.18 1079.02 1118.18 Q1074.31 1118.18 1071.67 1121.68 Q1069.06 1125.18 1069.06 1131.55 Q1069.06 1137.88 1071.67 1141.38 Q1074.31 1144.88 1079.02 1144.88 Q1083.77 1144.88 1086.38 1141.38 Q1089.02 1137.88 1089.02 1131.55 M1094.87 1145.36 Q1094.87 1154.46 1090.83 1158.89 Q1086.79 1163.34 1078.45 1163.34 Q1075.36 1163.34 1072.63 1162.87 Q1069.89 1162.42 1067.31 1161.46 L1067.31 1155.77 Q1069.89 1157.17 1072.4 1157.84 Q1074.92 1158.5 1077.53 1158.5 Q1083.29 1158.5 1086.15 1155.48 Q1089.02 1152.49 1089.02 1146.41 L1089.02 1143.51 Q1087.2 1146.66 1084.37 1148.22 Q1081.54 1149.78 1077.59 1149.78 Q1071.03 1149.78 1067.02 1144.79 Q1063.01 1139.79 1063.01 1131.55 Q1063.01 1123.27 1067.02 1118.27 Q1071.03 1113.28 1077.59 1113.28 Q1081.54 1113.28 1084.37 1114.84 Q1087.2 1116.4 1089.02 1119.55 L1089.02 1114.14 L1094.87 1114.14 L1094.87 1145.36 Z" fill="#000000" fill-rule="nonzero" fill-opacity="1" /><path clip-path="url(#clip780)" d="M1113.3 1144.37 L1135.74 1144.37 L1135.74 1149.78 L1105.57 1149.78 L1105.57 1144.37 Q1109.23 1140.59 1115.53 1134.22 Q1121.86 1127.82 1123.49 1125.98 Q1126.58 1122.51 1127.78 1120.12 Q1129.03 1117.7 1129.03 1115.38 Q1129.03 1111.59 1126.35 1109.2 Q1123.71 1106.82 1119.45 1106.82 Q1116.42 1106.82 1113.05 1107.87 Q1109.71 1108.92 1105.89 1111.05 L1105.89 1104.56 Q1109.77 1103 1113.14 1102.2 Q1116.52 1101.4 1119.32 1101.4 Q1126.7 1101.4 1131.1 1105.1 Q1135.49 1108.79 1135.49 1114.96 Q1135.49 1117.89 1134.37 1120.53 Q1133.29 1123.14 1130.39 1126.71 Q1129.6 1127.63 1125.33 1132.06 Q1121.07 1136.45 1113.3 1144.37 Z" fill="#000000" fill-rule="nonzero" fill-opacity="1" /><path clip-path="url(#clip780)" d="M1147.49 1100.32 L1152.58 1100.32 Q1157.35 1107.83 1159.71 1115.03 Q1162.1 1122.22 1162.1 1129.32 Q1162.1 1136.45 1159.71 1143.67 Q1157.35 1150.9 1152.58 1158.38 L1147.49 1158.38 Q1151.72 1151.09 1153.79 1143.9 Q1155.89 1136.67 1155.89 1129.32 Q1155.89 1121.97 1153.79 1114.8 Q1151.72 1107.64 1147.49 1100.32 Z" fill="#000000" fill-rule="nonzero" fill-opacity="1" /><polyline clip-path="url(#clip780)" style="stroke:#000000; stroke-linecap:round; stroke-linejoin:round; stroke-width:4; stroke-opacity:1; fill:none" points="274.816,1016.92 274.816,131.032 "/>
<polyline clip-path="url(#clip780)" style="stroke:#000000; stroke-linecap:round; stroke-linejoin:round; stroke-width:4; stroke-opacity:1; fill:none" points="274.816,991.848 293.713,991.848 "/>
<polyline clip-path="url(#clip780)" style="stroke:#000000; stroke-linecap:round; stroke-linejoin:round; stroke-width:4; stroke-opacity:1; fill:none" points="274.816,703.508 293.713,703.508 "/>
<polyline clip-path="url(#clip780)" style="stroke:#000000; stroke-linecap:round; stroke-linejoin:round; stroke-width:4; stroke-opacity:1; fill:none" points="274.816,415.169 293.713,415.169 "/>
<path clip-path="url(#clip780)" d="M125.68 1011.64 L133.319 1011.64 L133.319 985.274 L125.009 986.941 L125.009 982.682 L133.273 981.015 L137.949 981.015 L137.949 1011.64 L145.587 1011.64 L145.587 1015.58 L125.68 1015.58 L125.68 1011.64 Z" fill="#000000" fill-rule="nonzero" fill-opacity="1" /><path clip-path="url(#clip780)" d="M165.032 984.094 Q161.421 984.094 159.592 987.659 Q157.786 991.2 157.786 998.33 Q157.786 1005.44 159.592 1009 Q161.421 1012.54 165.032 1012.54 Q168.666 1012.54 170.472 1009 Q172.3 1005.44 172.3 998.33 Q172.3 991.2 170.472 987.659 Q168.666 984.094 165.032 984.094 M165.032 980.39 Q170.842 980.39 173.898 984.997 Q176.976 989.58 176.976 998.33 Q176.976 1007.06 173.898 1011.66 Q170.842 1016.25 165.032 1016.25 Q159.222 1016.25 156.143 1011.66 Q153.087 1007.06 153.087 998.33 Q153.087 989.58 156.143 984.997 Q159.222 980.39 165.032 980.39 Z" fill="#000000" fill-rule="nonzero" fill-opacity="1" /><path clip-path="url(#clip780)" d="M176.976 974.492 L201.088 974.492 L201.088 977.689 L176.976 977.689 L176.976 974.492 Z" fill="#000000" fill-rule="nonzero" fill-opacity="1" /><path clip-path="url(#clip780)" d="M209.946 984.967 L216.153 984.967 L216.153 963.545 L209.401 964.9 L209.401 961.439 L216.115 960.085 L219.914 960.085 L219.914 984.967 L226.121 984.967 L226.121 988.165 L209.946 988.165 L209.946 984.967 Z" fill="#000000" fill-rule="nonzero" fill-opacity="1" /><path clip-path="url(#clip780)" d="M233.832 960.085 L248.747 960.085 L248.747 963.282 L237.312 963.282 L237.312 970.166 Q238.139 969.884 238.967 969.752 Q239.794 969.601 240.622 969.601 Q245.324 969.601 248.07 972.178 Q250.816 974.755 250.816 979.156 Q250.816 983.688 247.994 986.209 Q245.173 988.71 240.039 988.71 Q238.271 988.71 236.428 988.409 Q234.603 988.108 232.647 987.506 L232.647 983.688 Q234.34 984.61 236.145 985.061 Q237.951 985.513 239.963 985.513 Q243.217 985.513 245.117 983.801 Q247.016 982.09 247.016 979.156 Q247.016 976.222 245.117 974.51 Q243.217 972.799 239.963 972.799 Q238.44 972.799 236.917 973.137 Q235.412 973.476 233.832 974.191 L233.832 960.085 Z" fill="#000000" fill-rule="nonzero" fill-opacity="1" /><path clip-path="url(#clip780)" d="M124.871 723.301 L132.51 723.301 L132.51 696.935 L124.2 698.602 L124.2 694.343 L132.464 692.676 L137.14 692.676 L137.14 723.301 L144.779 723.301 L144.779 727.236 L124.871 727.236 L124.871 723.301 Z" fill="#000000" fill-rule="nonzero" fill-opacity="1" /><path clip-path="url(#clip780)" d="M164.223 695.755 Q160.612 695.755 158.783 699.319 Q156.978 702.861 156.978 709.991 Q156.978 717.097 158.783 720.662 Q160.612 724.204 164.223 724.204 Q167.857 724.204 169.663 720.662 Q171.492 717.097 171.492 709.991 Q171.492 702.861 169.663 699.319 Q167.857 695.755 164.223 695.755 M164.223 692.051 Q170.033 692.051 173.089 696.657 Q176.167 701.241 176.167 709.991 Q176.167 718.717 173.089 723.324 Q170.033 727.907 164.223 727.907 Q158.413 727.907 155.334 723.324 Q152.279 718.717 152.279 709.991 Q152.279 701.241 155.334 696.657 Q158.413 692.051 164.223 692.051 Z" fill="#000000" fill-rule="nonzero" fill-opacity="1" /><path clip-path="url(#clip780)" d="M176.167 686.152 L200.279 686.152 L200.279 689.35 L176.167 689.35 L176.167 686.152 Z" fill="#000000" fill-rule="nonzero" fill-opacity="1" /><path clip-path="url(#clip780)" d="M209.137 696.628 L215.344 696.628 L215.344 675.206 L208.592 676.56 L208.592 673.1 L215.306 671.746 L219.106 671.746 L219.106 696.628 L225.312 696.628 L225.312 699.826 L209.137 699.826 L209.137 696.628 Z" fill="#000000" fill-rule="nonzero" fill-opacity="1" /><path clip-path="url(#clip780)" d="M241.111 674.247 Q238.177 674.247 236.691 677.143 Q235.224 680.021 235.224 685.814 Q235.224 691.588 236.691 694.484 Q238.177 697.362 241.111 697.362 Q244.064 697.362 245.531 694.484 Q247.016 691.588 247.016 685.814 Q247.016 680.021 245.531 677.143 Q244.064 674.247 241.111 674.247 M241.111 671.238 Q245.831 671.238 248.314 674.98 Q250.816 678.704 250.816 685.814 Q250.816 692.904 248.314 696.647 Q245.831 700.371 241.111 700.371 Q236.39 700.371 233.889 696.647 Q231.406 692.904 231.406 685.814 Q231.406 678.704 233.889 674.98 Q236.39 671.238 241.111 671.238 Z" fill="#000000" fill-rule="nonzero" fill-opacity="1" /><path clip-path="url(#clip780)" d="M150.187 434.962 L157.826 434.962 L157.826 408.596 L149.515 410.263 L149.515 406.003 L157.779 404.337 L162.455 404.337 L162.455 434.962 L170.094 434.962 L170.094 438.897 L150.187 438.897 L150.187 434.962 Z" fill="#000000" fill-rule="nonzero" fill-opacity="1" /><path clip-path="url(#clip780)" d="M189.538 407.415 Q185.927 407.415 184.099 410.98 Q182.293 414.522 182.293 421.651 Q182.293 428.758 184.099 432.323 Q185.927 435.864 189.538 435.864 Q193.173 435.864 194.978 432.323 Q196.807 428.758 196.807 421.651 Q196.807 414.522 194.978 410.98 Q193.173 407.415 189.538 407.415 M189.538 403.712 Q195.349 403.712 198.404 408.318 Q201.483 412.902 201.483 421.651 Q201.483 430.378 198.404 434.985 Q195.349 439.568 189.538 439.568 Q183.728 439.568 180.65 434.985 Q177.594 430.378 177.594 421.651 Q177.594 412.902 180.65 408.318 Q183.728 403.712 189.538 403.712 Z" fill="#000000" fill-rule="nonzero" fill-opacity="1" /><path clip-path="url(#clip780)" d="M201.483 397.813 L225.594 397.813 L225.594 401.01 L201.483 401.01 L201.483 397.813 Z" fill="#000000" fill-rule="nonzero" fill-opacity="1" /><path clip-path="url(#clip780)" d="M233.832 383.406 L248.747 383.406 L248.747 386.604 L237.312 386.604 L237.312 393.487 Q238.139 393.205 238.967 393.074 Q239.794 392.923 240.622 392.923 Q245.324 392.923 248.07 395.5 Q250.816 398.076 250.816 402.477 Q250.816 407.01 247.994 409.53 Q245.173 412.032 240.039 412.032 Q238.271 412.032 236.428 411.731 Q234.603 411.43 232.647 410.828 L232.647 407.01 Q234.34 407.932 236.145 408.383 Q237.951 408.834 239.963 408.834 Q243.217 408.834 245.117 407.123 Q247.016 405.411 247.016 402.477 Q247.016 399.543 245.117 397.832 Q243.217 396.12 239.963 396.12 Q238.44 396.12 236.917 396.459 Q235.412 396.798 233.832 397.512 L233.832 383.406 Z" fill="#000000" fill-rule="nonzero" fill-opacity="1" /><path clip-path="url(#clip780)" d="M65.0328 1013.48 Q65.0328 1016.25 67.3881 1017.84 Q69.7434 1019.4 73.9448 1019.4 Q78.0825 1019.4 80.4696 1017.84 Q82.825 1016.25 82.825 1013.48 Q82.825 1010.77 80.4696 1009.22 Q78.0825 1007.62 73.9448 1007.62 Q69.7753 1007.62 67.42 1009.22 Q65.0328 1010.77 65.0328 1013.48 M60.9906 1013.48 Q60.9906 1008.45 64.4917 1005.49 Q67.9929 1002.53 73.9448 1002.53 Q79.8967 1002.53 83.3979 1005.52 Q86.8672 1008.48 86.8672 1013.48 Q86.8672 1018.57 83.3979 1021.53 Q79.8967 1024.49 73.9448 1024.49 Q67.961 1024.49 64.4917 1021.53 Q60.9906 1018.54 60.9906 1013.48 M41.607 1046.33 Q41.607 1049.06 43.9942 1050.66 Q46.3495 1052.22 50.4872 1052.22 Q54.6885 1052.22 57.0438 1050.66 Q59.3992 1049.1 59.3992 1046.33 Q59.3992 1043.56 57.0438 1042 Q54.6885 1040.41 50.4872 1040.41 Q46.3813 1040.41 43.9942 1042 Q41.607 1043.59 41.607 1046.33 M37.5648 1017.59 L37.5648 1012.49 L86.8672 1042.22 L86.8672 1047.31 L37.5648 1017.59 M37.5648 1046.33 Q37.5648 1041.3 41.0659 1038.31 Q44.5352 1035.31 50.4872 1035.31 Q56.5028 1035.31 59.9721 1038.31 Q63.4414 1041.27 63.4414 1046.33 Q63.4414 1051.39 59.9721 1054.35 Q56.4709 1057.28 50.4872 1057.28 Q44.5671 1057.28 41.0659 1054.32 Q37.5648 1051.36 37.5648 1046.33 Z" fill="#000000" fill-rule="nonzero" fill-opacity="1" /><path clip-path="url(#clip780)" d="M67.7064 948.614 Q61.3407 948.614 57.8396 951.256 Q54.3384 953.865 54.3384 958.608 Q54.3384 963.319 57.8396 965.96 Q61.3407 968.57 67.7064 968.57 Q74.0403 968.57 77.5414 965.96 Q81.0426 963.319 81.0426 958.608 Q81.0426 953.865 77.5414 951.256 Q74.0403 948.614 67.7064 948.614 M81.52 942.757 Q90.623 942.757 95.0471 946.8 Q99.5031 950.842 99.5031 959.181 Q99.5031 962.268 99.0257 965.005 Q98.5801 967.743 97.6252 970.321 L91.9279 970.321 Q93.3284 967.743 93.9968 965.228 Q94.6652 962.714 94.6652 960.104 Q94.6652 954.343 91.6415 951.478 Q88.6496 948.614 82.5703 948.614 L79.6739 948.614 Q82.825 950.428 84.3846 953.261 Q85.9442 956.093 85.9442 960.04 Q85.9442 966.597 80.9471 970.607 Q75.95 974.618 67.7064 974.618 Q59.431 974.618 54.4339 970.607 Q49.4368 966.597 49.4368 960.04 Q49.4368 956.093 50.9964 953.261 Q52.556 950.428 55.7071 948.614 L50.2962 948.614 L50.2962 942.757 L81.52 942.757 Z" fill="#000000" fill-rule="nonzero" fill-opacity="1" /><path clip-path="url(#clip780)" d="M68.0247 914.494 Q68.0247 921.591 69.6479 924.329 Q71.2712 927.066 75.1861 927.066 Q78.3053 927.066 80.1514 925.029 Q81.9656 922.96 81.9656 919.427 Q81.9656 914.557 78.5281 911.629 Q75.0588 908.669 69.3297 908.669 L68.0247 908.669 L68.0247 914.494 M65.6057 902.812 L85.9442 902.812 L85.9442 908.669 L80.5333 908.669 Q83.7798 910.674 85.3394 913.666 Q86.8672 916.658 86.8672 920.987 Q86.8672 926.461 83.8116 929.708 Q80.7243 932.922 75.5681 932.922 Q69.5525 932.922 66.4969 928.912 Q63.4414 924.87 63.4414 916.881 L63.4414 908.669 L62.8685 908.669 Q58.8262 908.669 56.6301 911.343 Q54.4021 913.984 54.4021 918.79 Q54.4021 921.846 55.1341 924.742 Q55.8662 927.639 57.3303 930.312 L51.9195 930.312 Q50.6781 927.098 50.0734 924.074 Q49.4368 921.05 49.4368 918.186 Q49.4368 910.451 53.4472 906.632 Q57.4576 902.812 65.6057 902.812 Z" fill="#000000" fill-rule="nonzero" fill-opacity="1" /><path clip-path="url(#clip780)" d="M50.2962 890.749 L50.2962 884.893 L85.9442 884.893 L85.9442 890.749 L50.2962 890.749 M36.419 890.749 L36.419 884.893 L43.835 884.893 L43.835 890.749 L36.419 890.749 Z" fill="#000000" fill-rule="nonzero" fill-opacity="1" /><path clip-path="url(#clip780)" d="M64.4281 843.007 L85.9442 843.007 L85.9442 848.863 L64.619 848.863 Q59.5583 848.863 57.0438 850.836 Q54.5294 852.81 54.5294 856.757 Q54.5294 861.499 57.5531 864.236 Q60.5768 866.974 65.7967 866.974 L85.9442 866.974 L85.9442 872.862 L50.2962 872.862 L50.2962 866.974 L55.8344 866.974 Q52.6197 864.873 51.0283 862.04 Q49.4368 859.176 49.4368 855.452 Q49.4368 849.309 53.2563 846.158 Q57.0438 843.007 64.4281 843.007 Z" fill="#000000" fill-rule="nonzero" fill-opacity="1" /><path clip-path="url(#clip780)" d="M57.1393 782.851 Q53.1926 780.655 51.3147 777.599 Q49.4368 774.543 49.4368 770.406 Q49.4368 764.836 53.3517 761.812 Q57.2348 758.788 64.4281 758.788 L85.9442 758.788 L85.9442 764.677 L64.619 764.677 Q59.4946 764.677 57.012 766.491 Q54.5294 768.305 54.5294 772.029 Q54.5294 776.581 57.5531 779.222 Q60.5768 781.864 65.7967 781.864 L85.9442 781.864 L85.9442 787.752 L64.619 787.752 Q59.4628 787.752 57.012 789.567 Q54.5294 791.381 54.5294 795.168 Q54.5294 799.656 57.5849 802.298 Q60.6086 804.94 65.7967 804.94 L85.9442 804.94 L85.9442 810.828 L50.2962 810.828 L50.2962 804.94 L55.8344 804.94 Q52.556 802.935 50.9964 800.134 Q49.4368 797.333 49.4368 793.481 Q49.4368 789.598 51.4102 786.893 Q53.3836 784.156 57.1393 782.851 Z" fill="#000000" fill-rule="nonzero" fill-opacity="1" /><path clip-path="url(#clip780)" d="M54.4021 733.294 Q54.4021 738.004 58.0942 740.742 Q61.7545 743.479 68.152 743.479 Q74.5495 743.479 78.2417 740.773 Q81.9019 738.036 81.9019 733.294 Q81.9019 728.615 78.2098 725.878 Q74.5177 723.14 68.152 723.14 Q61.8181 723.14 58.126 725.878 Q54.4021 728.615 54.4021 733.294 M49.4368 733.294 Q49.4368 725.655 54.4021 721.294 Q59.3673 716.934 68.152 716.934 Q76.9049 716.934 81.9019 721.294 Q86.8672 725.655 86.8672 733.294 Q86.8672 740.964 81.9019 745.325 Q76.9049 749.654 68.152 749.654 Q59.3673 749.654 54.4021 745.325 Q49.4368 740.964 49.4368 733.294 Z" fill="#000000" fill-rule="nonzero" fill-opacity="1" /><path clip-path="url(#clip780)" d="M89.2543 692.394 Q95.62 694.877 97.5616 697.232 Q99.5031 699.587 99.5031 703.534 L99.5031 708.213 L94.6015 708.213 L94.6015 704.775 Q94.6015 702.356 93.4557 701.02 Q92.3099 699.683 88.0448 698.06 L85.3712 697.009 L50.2962 711.428 L50.2962 705.221 L78.178 694.081 L50.2962 682.941 L50.2962 676.734 L89.2543 692.394 Z" fill="#000000" fill-rule="nonzero" fill-opacity="1" /><path clip-path="url(#clip780)" d="M66.6561 638.158 L69.5206 638.158 L69.5206 665.085 Q75.5681 664.703 78.7509 661.457 Q81.9019 658.178 81.9019 652.354 Q81.9019 648.98 81.0744 645.829 Q80.2469 642.646 78.5918 639.527 L84.1299 639.527 Q85.4667 642.678 86.167 645.988 Q86.8672 649.298 86.8672 652.704 Q86.8672 661.234 81.9019 666.231 Q76.9367 671.196 68.4703 671.196 Q59.7174 671.196 54.5931 666.486 Q49.4368 661.743 49.4368 653.722 Q49.4368 646.529 54.0838 642.36 Q58.6989 638.158 66.6561 638.158 M64.9373 644.015 Q60.1312 644.078 57.2666 646.72 Q54.4021 649.33 54.4021 653.659 Q54.4021 658.56 57.1712 661.52 Q59.9402 664.449 64.9692 664.894 L64.9373 644.015 Z" fill="#000000" fill-rule="nonzero" fill-opacity="1" /><path clip-path="url(#clip780)" d="M64.4281 598.914 L85.9442 598.914 L85.9442 604.77 L64.619 604.77 Q59.5583 604.77 57.0438 606.743 Q54.5294 608.717 54.5294 612.664 Q54.5294 617.406 57.5531 620.143 Q60.5768 622.881 65.7967 622.881 L85.9442 622.881 L85.9442 628.769 L50.2962 628.769 L50.2962 622.881 L55.8344 622.881 Q52.6197 620.78 51.0283 617.947 Q49.4368 615.083 49.4368 611.359 Q49.4368 605.216 53.2563 602.065 Q57.0438 598.914 64.4281 598.914 Z" fill="#000000" fill-rule="nonzero" fill-opacity="1" /><path clip-path="url(#clip780)" d="M36.4826 552.444 Q43.8032 556.709 50.9646 558.778 Q58.126 560.847 65.4784 560.847 Q72.8308 560.847 80.0559 558.778 Q87.2491 556.677 94.5379 552.444 L94.5379 557.537 Q87.0582 562.311 79.8331 564.698 Q72.608 567.053 65.4784 567.053 Q58.3806 567.053 51.1874 564.698 Q43.9942 562.343 36.4826 557.537 L36.4826 552.444 Z" fill="#000000" fill-rule="nonzero" fill-opacity="1" /><path clip-path="url(#clip780)" d="M66.6561 510.589 L69.5206 510.589 L69.5206 537.516 Q75.5681 537.134 78.7509 533.888 Q81.9019 530.61 81.9019 524.785 Q81.9019 521.411 81.0744 518.26 Q80.2469 515.077 78.5918 511.958 L84.1299 511.958 Q85.4667 515.109 86.167 518.419 Q86.8672 521.729 86.8672 525.135 Q86.8672 533.665 81.9019 538.662 Q76.9367 543.627 68.4703 543.627 Q59.7174 543.627 54.5931 538.917 Q49.4368 534.174 49.4368 526.154 Q49.4368 518.96 54.0838 514.791 Q58.6989 510.589 66.6561 510.589 M64.9373 516.446 Q60.1312 516.51 57.2666 519.151 Q54.4021 521.761 54.4021 526.09 Q54.4021 530.992 57.1712 533.952 Q59.9402 536.88 64.9692 537.325 L64.9373 516.446 M33.809 522.08 L33.809 515.746 L45.7765 526.122 L45.7765 530.992 L33.809 522.08 Z" fill="#000000" fill-rule="nonzero" fill-opacity="1" /><path clip-path="url(#clip780)" d="M51.6648 475.323 L57.1393 475.323 Q55.7707 477.806 55.1023 480.321 Q54.4021 482.803 54.4021 485.349 Q54.4021 491.047 58.0305 494.198 Q61.6272 497.349 68.152 497.349 Q74.6769 497.349 78.3053 494.198 Q81.9019 491.047 81.9019 485.349 Q81.9019 482.803 81.2335 480.321 Q80.5333 477.806 79.1647 475.323 L84.5755 475.323 Q85.7214 477.774 86.2943 480.416 Q86.8672 483.026 86.8672 485.986 Q86.8672 494.039 81.8064 498.781 Q76.7457 503.524 68.152 503.524 Q59.431 503.524 54.4339 498.749 Q49.4368 493.943 49.4368 485.604 Q49.4368 482.899 50.0097 480.321 Q50.5508 477.742 51.6648 475.323 Z" fill="#000000" fill-rule="nonzero" fill-opacity="1" /><path clip-path="url(#clip780)" d="M64.4281 435.506 L85.9442 435.506 L85.9442 441.362 L64.619 441.362 Q59.5583 441.362 57.0438 443.336 Q54.5294 445.309 54.5294 449.256 Q54.5294 453.998 57.5531 456.736 Q60.5768 459.473 65.7967 459.473 L85.9442 459.473 L85.9442 465.361 L36.419 465.361 L36.419 459.473 L55.8344 459.473 Q52.6197 457.372 51.0283 454.539 Q49.4368 451.675 49.4368 447.951 Q49.4368 441.808 53.2563 438.657 Q57.0438 435.506 64.4281 435.506 Z" fill="#000000" fill-rule="nonzero" fill-opacity="1" /><path clip-path="url(#clip780)" d="M66.6561 393.333 L69.5206 393.333 L69.5206 420.26 Q75.5681 419.878 78.7509 416.632 Q81.9019 413.353 81.9019 407.529 Q81.9019 404.155 81.0744 401.004 Q80.2469 397.821 78.5918 394.702 L84.1299 394.702 Q85.4667 397.853 86.167 401.163 Q86.8672 404.473 86.8672 407.879 Q86.8672 416.409 81.9019 421.406 Q76.9367 426.371 68.4703 426.371 Q59.7174 426.371 54.5931 421.661 Q49.4368 416.918 49.4368 408.897 Q49.4368 401.704 54.0838 397.535 Q58.6989 393.333 66.6561 393.333 M64.9373 399.19 Q60.1312 399.253 57.2666 401.895 Q54.4021 404.505 54.4021 408.834 Q54.4021 413.735 57.1712 416.695 Q59.9402 419.624 64.9692 420.069 L64.9373 399.19 Z" fill="#000000" fill-rule="nonzero" fill-opacity="1" /><path clip-path="url(#clip780)" d="M36.419 383.721 L36.419 377.864 L85.9442 377.864 L85.9442 383.721 L36.419 383.721 Z" fill="#000000" fill-rule="nonzero" fill-opacity="1" /><path clip-path="url(#clip780)" d="M36.419 365.61 L36.419 359.754 L85.9442 359.754 L85.9442 365.61 L36.419 365.61 Z" fill="#000000" fill-rule="nonzero" fill-opacity="1" /><path clip-path="url(#clip780)" d="M66.6561 317.008 L69.5206 317.008 L69.5206 343.935 Q75.5681 343.553 78.7509 340.307 Q81.9019 337.028 81.9019 331.204 Q81.9019 327.83 81.0744 324.679 Q80.2469 321.496 78.5918 318.377 L84.1299 318.377 Q85.4667 321.528 86.167 324.838 Q86.8672 328.148 86.8672 331.554 Q86.8672 340.084 81.9019 345.081 Q76.9367 350.046 68.4703 350.046 Q59.7174 350.046 54.5931 345.336 Q49.4368 340.593 49.4368 332.572 Q49.4368 325.379 54.0838 321.21 Q58.6989 317.008 66.6561 317.008 M64.9373 322.865 Q60.1312 322.928 57.2666 325.57 Q54.4021 328.18 54.4021 332.509 Q54.4021 337.41 57.1712 340.37 Q59.9402 343.299 64.9692 343.744 L64.9373 322.865 Z" fill="#000000" fill-rule="nonzero" fill-opacity="1" /><path clip-path="url(#clip780)" d="M36.419 286.676 L36.419 280.819 L85.9442 280.819 L85.9442 286.676 L36.419 286.676 Z" fill="#000000" fill-rule="nonzero" fill-opacity="1" /><path clip-path="url(#clip780)" d="M54.4021 254.752 Q54.4021 259.462 58.0942 262.2 Q61.7545 264.937 68.152 264.937 Q74.5495 264.937 78.2417 262.231 Q81.9019 259.494 81.9019 254.752 Q81.9019 250.073 78.2098 247.336 Q74.5177 244.598 68.152 244.598 Q61.8181 244.598 58.126 247.336 Q54.4021 250.073 54.4021 254.752 M49.4368 254.752 Q49.4368 247.113 54.4021 242.752 Q59.3673 238.392 68.152 238.392 Q76.9049 238.392 81.9019 242.752 Q86.8672 247.113 86.8672 254.752 Q86.8672 262.422 81.9019 266.783 Q76.9049 271.112 68.152 271.112 Q59.3673 271.112 54.4021 266.783 Q49.4368 262.422 49.4368 254.752 Z" fill="#000000" fill-rule="nonzero" fill-opacity="1" /><path clip-path="url(#clip780)" d="M67.7064 205.227 Q61.3407 205.227 57.8396 207.868 Q54.3384 210.478 54.3384 215.221 Q54.3384 219.931 57.8396 222.573 Q61.3407 225.183 67.7064 225.183 Q74.0403 225.183 77.5414 222.573 Q81.0426 219.931 81.0426 215.221 Q81.0426 210.478 77.5414 207.868 Q74.0403 205.227 67.7064 205.227 M81.52 199.37 Q90.623 199.37 95.0471 203.412 Q99.5031 207.455 99.5031 215.794 Q99.5031 218.881 99.0257 221.618 Q98.5801 224.355 97.6252 226.934 L91.9279 226.934 Q93.3284 224.355 93.9968 221.841 Q94.6652 219.327 94.6652 216.717 Q94.6652 210.956 91.6415 208.091 Q88.6496 205.227 82.5703 205.227 L79.6739 205.227 Q82.825 207.041 84.3846 209.873 Q85.9442 212.706 85.9442 216.653 Q85.9442 223.21 80.9471 227.22 Q75.95 231.23 67.7064 231.23 Q59.431 231.23 54.4339 227.22 Q49.4368 223.21 49.4368 216.653 Q49.4368 212.706 50.9964 209.873 Q52.556 207.041 55.7071 205.227 L50.2962 205.227 L50.2962 199.37 L81.52 199.37 Z" fill="#000000" fill-rule="nonzero" fill-opacity="1" /><path clip-path="url(#clip780)" d="M80.5333 185.366 L80.5333 174.862 L44.2806 174.862 L46.5723 186.289 L40.7158 186.289 L38.4242 174.926 L38.4242 168.496 L80.5333 168.496 L80.5333 157.993 L85.9442 157.993 L85.9442 185.366 L80.5333 185.366 Z" fill="#000000" fill-rule="nonzero" fill-opacity="1" /><path clip-path="url(#clip780)" d="M42.6574 131.257 Q42.6574 136.222 47.5589 138.737 Q52.4287 141.219 62.2319 141.219 Q72.0033 141.219 76.9049 138.737 Q81.7746 136.222 81.7746 131.257 Q81.7746 126.26 76.9049 123.777 Q72.0033 121.263 62.2319 121.263 Q52.4287 121.263 47.5589 123.777 Q42.6574 126.26 42.6574 131.257 M37.5648 131.257 Q37.5648 123.268 43.8987 119.067 Q50.2007 114.833 62.2319 114.833 Q74.2313 114.833 80.5651 119.067 Q86.8672 123.268 86.8672 131.257 Q86.8672 139.246 80.5651 143.479 Q74.2313 147.681 62.2319 147.681 Q50.2007 147.681 43.8987 143.479 Q37.5648 139.246 37.5648 131.257 Z" fill="#000000" fill-rule="nonzero" fill-opacity="1" /><path clip-path="url(#clip780)" d="M36.4826 105.285 L36.4826 100.192 Q43.9942 95.4181 51.1874 93.0628 Q58.3806 90.6756 65.4784 90.6756 Q72.608 90.6756 79.8331 93.0628 Q87.0582 95.4181 94.5379 100.192 L94.5379 105.285 Q87.2491 101.052 80.0559 98.9829 Q72.8308 96.8822 65.4784 96.8822 Q58.126 96.8822 50.9646 98.9829 Q43.8032 101.052 36.4826 105.285 Z" fill="#000000" fill-rule="nonzero" fill-opacity="1" /><path clip-path="url(#clip780)" d="M278.928 12.096 L287.111 12.096 L287.111 65.6895 L316.561 65.6895 L316.561 72.576 L278.928 72.576 L278.928 12.096 Z" fill="#000000" fill-rule="nonzero" fill-opacity="1" /><path clip-path="url(#clip780)" d="M324.825 27.2059 L332.278 27.2059 L332.278 72.576 L324.825 72.576 L324.825 27.2059 M324.825 9.54393 L332.278 9.54393 L332.278 18.9825 L324.825 18.9825 L324.825 9.54393 Z" fill="#000000" fill-rule="nonzero" fill-opacity="1" /><path clip-path="url(#clip780)" d="M383.198 35.9153 Q385.993 30.8922 389.882 28.5022 Q393.771 26.1121 399.037 26.1121 Q406.126 26.1121 409.975 31.0947 Q413.823 36.0368 413.823 45.1919 L413.823 72.576 L406.329 72.576 L406.329 45.4349 Q406.329 38.913 404.02 35.7533 Q401.711 32.5936 396.971 32.5936 Q391.179 32.5936 387.816 36.4419 Q384.454 40.2903 384.454 46.9338 L384.454 72.576 L376.96 72.576 L376.96 45.4349 Q376.96 38.8725 374.651 35.7533 Q372.342 32.5936 367.521 32.5936 Q361.809 32.5936 358.447 36.4824 Q355.085 40.3308 355.085 46.9338 L355.085 72.576 L347.591 72.576 L347.591 27.2059 L355.085 27.2059 L355.085 34.2544 Q357.637 30.082 361.202 28.0971 Q364.767 26.1121 369.668 26.1121 Q374.61 26.1121 378.054 28.6237 Q381.537 31.1352 383.198 35.9153 Z" fill="#000000" fill-rule="nonzero" fill-opacity="1" /><path clip-path="url(#clip780)" d="M428.69 27.2059 L436.144 27.2059 L436.144 72.576 L428.69 72.576 L428.69 27.2059 M428.69 9.54393 L436.144 9.54393 L436.144 18.9825 L428.69 18.9825 L428.69 9.54393 Z" fill="#000000" fill-rule="nonzero" fill-opacity="1" /><path clip-path="url(#clip780)" d="M459.112 14.324 L459.112 27.2059 L474.465 27.2059 L474.465 32.9987 L459.112 32.9987 L459.112 57.6282 Q459.112 63.1779 460.611 64.7578 Q462.15 66.3376 466.809 66.3376 L474.465 66.3376 L474.465 72.576 L466.809 72.576 Q458.181 72.576 454.899 69.3758 Q451.618 66.1351 451.618 57.6282 L451.618 32.9987 L446.149 32.9987 L446.149 27.2059 L451.618 27.2059 L451.618 14.324 L459.112 14.324 Z" fill="#000000" fill-rule="nonzero" fill-opacity="1" /><path clip-path="url(#clip780)" d="M523.076 48.0275 L523.076 51.6733 L488.805 51.6733 Q489.291 59.3701 493.423 63.421 Q497.596 67.4314 505.009 67.4314 Q509.303 67.4314 513.313 66.3781 Q517.364 65.3249 521.334 63.2184 L521.334 70.267 Q517.324 71.9684 513.111 72.8596 Q508.898 73.7508 504.563 73.7508 Q493.707 73.7508 487.347 67.4314 Q481.028 61.1119 481.028 50.3365 Q481.028 39.1965 487.023 32.6746 Q493.059 26.1121 503.267 26.1121 Q512.422 26.1121 517.729 32.0264 Q523.076 37.9003 523.076 48.0275 M515.622 45.84 Q515.541 39.7232 512.179 36.0774 Q508.857 32.4315 503.348 32.4315 Q497.11 32.4315 493.342 35.9558 Q489.616 39.4801 489.048 45.8805 L515.622 45.84 Z" fill="#000000" fill-rule="nonzero" fill-opacity="1" /><path clip-path="url(#clip780)" d="M591.536 49.3643 Q591.536 41.2625 588.174 36.8065 Q584.852 32.3505 578.816 32.3505 Q572.821 32.3505 569.459 36.8065 Q566.137 41.2625 566.137 49.3643 Q566.137 57.4256 569.459 61.8816 Q572.821 66.3376 578.816 66.3376 Q584.852 66.3376 588.174 61.8816 Q591.536 57.4256 591.536 49.3643 M598.99 66.9452 Q598.99 78.5308 593.845 84.1616 Q588.701 89.8329 578.087 89.8329 Q574.158 89.8329 570.674 89.2252 Q567.19 88.6581 563.909 87.4428 L563.909 80.1917 Q567.19 81.9741 570.391 82.8248 Q573.591 83.6755 576.913 83.6755 Q584.245 83.6755 587.89 79.8271 Q591.536 76.0193 591.536 68.282 L591.536 64.5957 Q589.227 68.6061 585.622 70.5911 Q582.017 72.576 576.994 72.576 Q568.649 72.576 563.545 66.2161 Q558.44 59.8562 558.44 49.3643 Q558.44 38.832 563.545 32.472 Q568.649 26.1121 576.994 26.1121 Q582.017 26.1121 585.622 28.0971 Q589.227 30.082 591.536 34.0924 L591.536 27.2059 L598.99 27.2059 L598.99 66.9452 Z" fill="#000000" fill-rule="nonzero" fill-opacity="1" /><path clip-path="url(#clip780)" d="M634.962 49.7694 Q625.928 49.7694 622.445 51.8354 Q618.961 53.9013 618.961 58.8839 Q618.961 62.8538 621.553 65.2034 Q624.187 67.5124 628.683 67.5124 Q634.881 67.5124 638.608 63.1374 Q642.375 58.7219 642.375 51.4303 L642.375 49.7694 L634.962 49.7694 M649.829 46.6907 L649.829 72.576 L642.375 72.576 L642.375 65.6895 Q639.823 69.8214 636.015 71.8063 Q632.207 73.7508 626.698 73.7508 Q619.731 73.7508 615.599 69.8619 Q611.507 65.9325 611.507 59.3701 Q611.507 51.7138 616.611 47.825 Q621.756 43.9361 631.924 43.9361 L642.375 43.9361 L642.375 43.2069 Q642.375 38.0623 638.972 35.2672 Q635.61 32.4315 629.493 32.4315 Q625.604 32.4315 621.918 33.3632 Q618.232 34.295 614.829 36.1584 L614.829 29.2718 Q618.92 27.692 622.769 26.9223 Q626.617 26.1121 630.263 26.1121 Q640.107 26.1121 644.968 31.2163 Q649.829 36.3204 649.829 46.6907 Z" fill="#000000" fill-rule="nonzero" fill-opacity="1" /><path clip-path="url(#clip780)" d="M665.182 27.2059 L672.635 27.2059 L672.635 72.576 L665.182 72.576 L665.182 27.2059 M665.182 9.54393 L672.635 9.54393 L672.635 18.9825 L665.182 18.9825 L665.182 9.54393 Z" fill="#000000" fill-rule="nonzero" fill-opacity="1" /><path clip-path="url(#clip780)" d="M725.945 45.1919 L725.945 72.576 L718.492 72.576 L718.492 45.4349 Q718.492 38.994 715.98 35.7938 Q713.468 32.5936 708.445 32.5936 Q702.41 32.5936 698.926 36.4419 Q695.442 40.2903 695.442 46.9338 L695.442 72.576 L687.948 72.576 L687.948 27.2059 L695.442 27.2059 L695.442 34.2544 Q698.116 30.163 701.721 28.1376 Q705.367 26.1121 710.106 26.1121 Q717.924 26.1121 721.935 30.9732 Q725.945 35.7938 725.945 45.1919 Z" fill="#000000" fill-rule="nonzero" fill-opacity="1" /><path clip-path="url(#clip780)" d="M797.039 34.0924 L797.039 9.54393 L804.492 9.54393 L804.492 72.576 L797.039 72.576 L797.039 65.7705 Q794.689 69.8214 791.084 71.8063 Q787.519 73.7508 782.496 73.7508 Q774.273 73.7508 769.087 67.1883 Q763.943 60.6258 763.943 49.9314 Q763.943 39.2371 769.087 32.6746 Q774.273 26.1121 782.496 26.1121 Q787.519 26.1121 791.084 28.0971 Q794.689 30.0415 797.039 34.0924 M771.639 49.9314 Q771.639 58.1548 775.002 62.8538 Q778.404 67.5124 784.319 67.5124 Q790.233 67.5124 793.636 62.8538 Q797.039 58.1548 797.039 49.9314 Q797.039 41.7081 793.636 37.0496 Q790.233 32.3505 784.319 32.3505 Q778.404 32.3505 775.002 37.0496 Q771.639 41.7081 771.639 49.9314 Z" fill="#000000" fill-rule="nonzero" fill-opacity="1" /><path clip-path="url(#clip780)" d="M826.894 12.096 L826.894 34.5785 L820.007 34.5785 L820.007 12.096 L826.894 12.096 Z" fill="#000000" fill-rule="nonzero" fill-opacity="1" /><path clip-path="url(#clip780)" d="M842.652 27.2059 L850.105 27.2059 L850.105 72.576 L842.652 72.576 L842.652 27.2059 M842.652 9.54393 L850.105 9.54393 L850.105 18.9825 L842.652 18.9825 L842.652 9.54393 Z" fill="#000000" fill-rule="nonzero" fill-opacity="1" /><path clip-path="url(#clip780)" d="M903.415 45.1919 L903.415 72.576 L895.962 72.576 L895.962 45.4349 Q895.962 38.994 893.45 35.7938 Q890.939 32.5936 885.915 32.5936 Q879.88 32.5936 876.396 36.4419 Q872.912 40.2903 872.912 46.9338 L872.912 72.576 L865.418 72.576 L865.418 27.2059 L872.912 27.2059 L872.912 34.2544 Q875.586 30.163 879.191 28.1376 Q882.837 26.1121 887.576 26.1121 Q895.395 26.1121 899.405 30.9732 Q903.415 35.7938 903.415 45.1919 Z" fill="#000000" fill-rule="nonzero" fill-opacity="1" /><path clip-path="url(#clip780)" d="M950.932 28.9478 L950.932 35.9153 Q947.773 34.1734 944.573 33.3227 Q941.413 32.4315 938.172 32.4315 Q930.921 32.4315 926.911 37.0496 Q922.9 41.6271 922.9 49.9314 Q922.9 58.2358 926.911 62.8538 Q930.921 67.4314 938.172 67.4314 Q941.413 67.4314 944.573 66.5807 Q947.773 65.6895 950.932 63.9476 L950.932 70.8341 Q947.813 72.2924 944.451 73.0216 Q941.129 73.7508 937.362 73.7508 Q927.113 73.7508 921.077 67.3098 Q915.041 60.8689 915.041 49.9314 Q915.041 38.832 921.118 32.472 Q927.235 26.1121 937.848 26.1121 Q941.291 26.1121 944.573 26.8413 Q947.854 27.5299 950.932 28.9478 Z" fill="#000000" fill-rule="nonzero" fill-opacity="1" /><path clip-path="url(#clip780)" d="M990.186 34.1734 Q988.93 33.4443 987.431 33.1202 Q985.973 32.7556 984.19 32.7556 Q977.871 32.7556 974.468 36.8875 Q971.106 40.9789 971.106 48.6757 L971.106 72.576 L963.612 72.576 L963.612 27.2059 L971.106 27.2059 L971.106 34.2544 Q973.456 30.1225 977.223 28.1376 Q980.99 26.1121 986.378 26.1121 Q987.148 26.1121 988.079 26.2337 Q989.011 26.3147 990.145 26.5172 L990.186 34.1734 Z" fill="#000000" fill-rule="nonzero" fill-opacity="1" /><path clip-path="url(#clip780)" d="M1034.99 48.0275 L1034.99 51.6733 L1000.72 51.6733 Q1001.2 59.3701 1005.34 63.421 Q1009.51 67.4314 1016.92 67.4314 Q1021.22 67.4314 1025.23 66.3781 Q1029.28 65.3249 1033.25 63.2184 L1033.25 70.267 Q1029.24 71.9684 1025.02 72.8596 Q1020.81 73.7508 1016.48 73.7508 Q1005.62 73.7508 999.26 67.4314 Q992.94 61.1119 992.94 50.3365 Q992.94 39.1965 998.936 32.6746 Q1004.97 26.1121 1015.18 26.1121 Q1024.33 26.1121 1029.64 32.0264 Q1034.99 37.9003 1034.99 48.0275 M1027.54 45.84 Q1027.45 39.7232 1024.09 36.0774 Q1020.77 32.4315 1015.26 32.4315 Q1009.02 32.4315 1005.26 35.9558 Q1001.53 39.4801 1000.96 45.8805 L1027.54 45.84 M1020.36 6.22219 L1028.43 6.22219 L1015.22 21.4536 L1009.02 21.4536 L1020.36 6.22219 Z" fill="#000000" fill-rule="nonzero" fill-opacity="1" /><path clip-path="url(#clip780)" d="M1082.55 35.9153 Q1085.34 30.8922 1089.23 28.5022 Q1093.12 26.1121 1098.39 26.1121 Q1105.47 26.1121 1109.32 31.0947 Q1113.17 36.0368 1113.17 45.1919 L1113.17 72.576 L1105.68 72.576 L1105.68 45.4349 Q1105.68 38.913 1103.37 35.7533 Q1101.06 32.5936 1096.32 32.5936 Q1090.53 32.5936 1087.16 36.4419 Q1083.8 40.2903 1083.8 46.9338 L1083.8 72.576 L1076.31 72.576 L1076.31 45.4349 Q1076.31 38.8725 1074 35.7533 Q1071.69 32.5936 1066.87 32.5936 Q1061.16 32.5936 1057.8 36.4824 Q1054.43 40.3308 1054.43 46.9338 L1054.43 72.576 L1046.94 72.576 L1046.94 27.2059 L1054.43 27.2059 L1054.43 34.2544 Q1056.99 30.082 1060.55 28.0971 Q1064.11 26.1121 1069.02 26.1121 Q1073.96 26.1121 1077.4 28.6237 Q1080.89 31.1352 1082.55 35.9153 Z" fill="#000000" fill-rule="nonzero" fill-opacity="1" /><path clip-path="url(#clip780)" d="M1166.85 48.0275 L1166.85 51.6733 L1132.58 51.6733 Q1133.06 59.3701 1137.19 63.421 Q1141.37 67.4314 1148.78 67.4314 Q1153.07 67.4314 1157.08 66.3781 Q1161.13 65.3249 1165.1 63.2184 L1165.1 70.267 Q1161.09 71.9684 1156.88 72.8596 Q1152.67 73.7508 1148.33 73.7508 Q1137.48 73.7508 1131.12 67.4314 Q1124.8 61.1119 1124.8 50.3365 Q1124.8 39.1965 1130.79 32.6746 Q1136.83 26.1121 1147.04 26.1121 Q1156.19 26.1121 1161.5 32.0264 Q1166.85 37.9003 1166.85 48.0275 M1159.39 45.84 Q1159.31 39.7232 1155.95 36.0774 Q1152.63 32.4315 1147.12 32.4315 Q1140.88 32.4315 1137.11 35.9558 Q1133.39 39.4801 1132.82 45.8805 L1159.39 45.84 Z" fill="#000000" fill-rule="nonzero" fill-opacity="1" /><path clip-path="url(#clip780)" d="M1216.79 45.1919 L1216.79 72.576 L1209.34 72.576 L1209.34 45.4349 Q1209.34 38.994 1206.83 35.7938 Q1204.32 32.5936 1199.29 32.5936 Q1193.26 32.5936 1189.77 36.4419 Q1186.29 40.2903 1186.29 46.9338 L1186.29 72.576 L1178.8 72.576 L1178.8 27.2059 L1186.29 27.2059 L1186.29 34.2544 Q1188.96 30.163 1192.57 28.1376 Q1196.21 26.1121 1200.95 26.1121 Q1208.77 26.1121 1212.78 30.9732 Q1216.79 35.7938 1216.79 45.1919 Z" fill="#000000" fill-rule="nonzero" fill-opacity="1" /><path clip-path="url(#clip780)" d="M1239.03 14.324 L1239.03 27.2059 L1254.39 27.2059 L1254.39 32.9987 L1239.03 32.9987 L1239.03 57.6282 Q1239.03 63.1779 1240.53 64.7578 Q1242.07 66.3376 1246.73 66.3376 L1254.39 66.3376 L1254.39 72.576 L1246.73 72.576 Q1238.1 72.576 1234.82 69.3758 Q1231.54 66.1351 1231.54 57.6282 L1231.54 32.9987 L1226.07 32.9987 L1226.07 27.2059 L1231.54 27.2059 L1231.54 14.324 L1239.03 14.324 Z" fill="#000000" fill-rule="nonzero" fill-opacity="1" /><path clip-path="url(#clip780)" d="M1284.81 49.7694 Q1275.77 49.7694 1272.29 51.8354 Q1268.81 53.9013 1268.81 58.8839 Q1268.81 62.8538 1271.4 65.2034 Q1274.03 67.5124 1278.53 67.5124 Q1284.73 67.5124 1288.45 63.1374 Q1292.22 58.7219 1292.22 51.4303 L1292.22 49.7694 L1284.81 49.7694 M1299.67 46.6907 L1299.67 72.576 L1292.22 72.576 L1292.22 65.6895 Q1289.67 69.8214 1285.86 71.8063 Q1282.05 73.7508 1276.54 73.7508 Q1269.58 73.7508 1265.44 69.8619 Q1261.35 65.9325 1261.35 59.3701 Q1261.35 51.7138 1266.46 47.825 Q1271.6 43.9361 1281.77 43.9361 L1292.22 43.9361 L1292.22 43.2069 Q1292.22 38.0623 1288.82 35.2672 Q1285.46 32.4315 1279.34 32.4315 Q1275.45 32.4315 1271.76 33.3632 Q1268.08 34.295 1264.68 36.1584 L1264.68 29.2718 Q1268.77 27.692 1272.61 26.9223 Q1276.46 26.1121 1280.11 26.1121 Q1289.95 26.1121 1294.81 31.2163 Q1299.67 36.3204 1299.67 46.6907 Z" fill="#000000" fill-rule="nonzero" fill-opacity="1" /><path clip-path="url(#clip780)" d="M1322.4 14.324 L1322.4 27.2059 L1337.75 27.2059 L1337.75 32.9987 L1322.4 32.9987 L1322.4 57.6282 Q1322.4 63.1779 1323.9 64.7578 Q1325.44 66.3376 1330.1 66.3376 L1337.75 66.3376 L1337.75 72.576 L1330.1 72.576 Q1321.47 72.576 1318.19 69.3758 Q1314.91 66.1351 1314.91 57.6282 L1314.91 32.9987 L1309.44 32.9987 L1309.44 27.2059 L1314.91 27.2059 L1314.91 14.324 L1322.4 14.324 Z" fill="#000000" fill-rule="nonzero" fill-opacity="1" /><path clip-path="url(#clip780)" d="M1347.56 27.2059 L1355.01 27.2059 L1355.01 72.576 L1347.56 72.576 L1347.56 27.2059 M1347.56 9.54393 L1355.01 9.54393 L1355.01 18.9825 L1347.56 18.9825 L1347.56 9.54393 Z" fill="#000000" fill-rule="nonzero" fill-opacity="1" /><path clip-path="url(#clip780)" d="M1388.19 32.4315 Q1382.19 32.4315 1378.71 37.1306 Q1375.22 41.7891 1375.22 49.9314 Q1375.22 58.0738 1378.67 62.7728 Q1382.15 67.4314 1388.19 67.4314 Q1394.14 67.4314 1397.63 62.7323 Q1401.11 58.0333 1401.11 49.9314 Q1401.11 41.8701 1397.63 37.1711 Q1394.14 32.4315 1388.19 32.4315 M1388.19 26.1121 Q1397.91 26.1121 1403.46 32.4315 Q1409.01 38.7509 1409.01 49.9314 Q1409.01 61.0714 1403.46 67.4314 Q1397.91 73.7508 1388.19 73.7508 Q1378.42 73.7508 1372.87 67.4314 Q1367.37 61.0714 1367.37 49.9314 Q1367.37 38.7509 1372.87 32.4315 Q1378.42 26.1121 1388.19 26.1121 Z" fill="#000000" fill-rule="nonzero" fill-opacity="1" /><path clip-path="url(#clip780)" d="M1459.08 45.1919 L1459.08 72.576 L1451.62 72.576 L1451.62 45.4349 Q1451.62 38.994 1449.11 35.7938 Q1446.6 32.5936 1441.58 32.5936 Q1435.54 32.5936 1432.06 36.4419 Q1428.57 40.2903 1428.57 46.9338 L1428.57 72.576 L1421.08 72.576 L1421.08 27.2059 L1428.57 27.2059 L1428.57 34.2544 Q1431.25 30.163 1434.85 28.1376 Q1438.5 26.1121 1443.24 26.1121 Q1451.06 26.1121 1455.07 30.9732 Q1459.08 35.7938 1459.08 45.1919 Z" fill="#000000" fill-rule="nonzero" fill-opacity="1" /><path clip-path="url(#clip780)" d="M1500.64 12.096 L1508.82 12.096 L1508.82 37.6572 L1535.96 12.096 L1546.5 12.096 L1516.48 40.2903 L1548.64 72.576 L1537.87 72.576 L1508.82 43.45 L1508.82 72.576 L1500.64 72.576 L1500.64 12.096 Z" fill="#000000" fill-rule="nonzero" fill-opacity="1" /><polyline clip-path="url(#clip782)" style="stroke:#009af9; stroke-linecap:round; stroke-linejoin:round; stroke-width:8; stroke-opacity:1; fill:none" points="310.984,160.823 552.104,156.104 793.225,166.679 1034.35,180.755 1275.47,192.202 1516.59,204.068 "/>
<polyline clip-path="url(#clip782)" style="stroke:#e26f46; stroke-linecap:round; stroke-linejoin:round; stroke-width:8; stroke-opacity:1; fill:none" points="310.984,210.728 552.104,219.7 793.225,241.532 1034.35,294.772 1275.47,329.175 1516.59,306.358 "/>
<polyline clip-path="url(#clip782)" style="stroke:#3da44d; stroke-linecap:round; stroke-linejoin:round; stroke-width:8; stroke-opacity:1; fill:none" points="310.984,991.848 552.104,991.848 793.225,991.848 1034.35,991.848 1275.47,991.848 1516.59,991.848 "/>
<polyline clip-path="url(#clip782)" style="stroke:#c271d2; stroke-linecap:round; stroke-linejoin:round; stroke-width:8; stroke-opacity:1; fill:none" points="310.984,256.466 552.104,275.336 793.225,991.848 1034.35,991.848 1275.47,991.848 1516.59,991.848 "/>
<polyline clip-path="url(#clip782)" style="stroke:#ac8d18; stroke-linecap:round; stroke-linejoin:round; stroke-width:8; stroke-opacity:1; fill:none" points="310.984,256.324 552.104,275.402 793.225,991.848 1034.35,991.848 1275.47,991.848 1516.59,991.848 "/>
<path clip-path="url(#clip780)" d="M1165.19 471.602 L1510.16 471.602 L1510.16 160.562 L1165.19 160.562  Z" fill="#ffffff" fill-rule="evenodd" fill-opacity="1"/>
<polyline clip-path="url(#clip780)" style="stroke:#000000; stroke-linecap:round; stroke-linejoin:round; stroke-width:4; stroke-opacity:1; fill:none" points="1165.19,471.602 1510.16,471.602 1510.16,160.562 1165.19,160.562 1165.19,471.602 "/>
<polyline clip-path="url(#clip780)" style="stroke:#009af9; stroke-linecap:round; stroke-linejoin:round; stroke-width:8; stroke-opacity:1; fill:none" points="1179.39,212.402 1264.58,212.402 "/>
<path clip-path="url(#clip780)" d="M1278.78 195.122 L1283.46 195.122 L1283.46 209.728 L1298.97 195.122 L1304.99 195.122 L1287.83 211.233 L1306.21 229.682 L1300.06 229.682 L1283.46 213.038 L1283.46 229.682 L1278.78 229.682 L1278.78 195.122 Z" fill="#000000" fill-rule="nonzero" fill-opacity="1" /><path clip-path="url(#clip780)" d="M1325.84 223.802 L1330.73 223.802 L1330.73 229.682 L1325.84 229.682 L1325.84 223.802 M1325.84 205.168 L1330.73 205.168 L1330.73 211.048 L1325.84 211.048 L1325.84 205.168 Z" fill="#000000" fill-rule="nonzero" fill-opacity="1" /><path clip-path="url(#clip780)" d="M1360.43 225.747 L1376.75 225.747 L1376.75 229.682 L1354.8 229.682 L1354.8 225.747 Q1357.46 222.992 1362.05 218.362 Q1366.65 213.71 1367.83 212.367 Q1370.08 209.844 1370.96 208.108 Q1371.86 206.349 1371.86 204.659 Q1371.86 201.904 1369.92 200.168 Q1368 198.432 1364.89 198.432 Q1362.7 198.432 1360.24 199.196 Q1357.81 199.96 1355.03 201.511 L1355.03 196.788 Q1357.86 195.654 1360.31 195.075 Q1362.76 194.497 1364.8 194.497 Q1370.17 194.497 1373.37 197.182 Q1376.56 199.867 1376.56 204.358 Q1376.56 206.487 1375.75 208.409 Q1374.96 210.307 1372.86 212.899 Q1372.28 213.571 1369.18 216.788 Q1366.07 219.983 1360.43 225.747 Z" fill="#000000" fill-rule="nonzero" fill-opacity="1" /><path clip-path="url(#clip780)" d="M1398.88 214.798 L1411.35 214.798 L1411.35 218.594 L1398.88 218.594 L1398.88 214.798 Z" fill="#000000" fill-rule="nonzero" fill-opacity="1" /><path clip-path="url(#clip780)" d="M1418.69 206.349 L1418.69 202.136 L1448.37 212.899 L1448.37 216.742 L1418.69 227.506 L1418.69 223.293 L1442.53 214.844 L1418.69 206.349 Z" fill="#000000" fill-rule="nonzero" fill-opacity="1" /><path clip-path="url(#clip780)" d="M1487.69 211.048 Q1491.05 211.765 1492.93 214.034 Q1494.82 216.302 1494.82 219.635 Q1494.82 224.751 1491.31 227.552 Q1487.79 230.353 1481.31 230.353 Q1479.13 230.353 1476.82 229.913 Q1474.52 229.497 1472.07 228.64 L1472.07 224.126 Q1474.01 225.26 1476.33 225.839 Q1478.64 226.418 1481.17 226.418 Q1485.57 226.418 1487.86 224.682 Q1490.17 222.946 1490.17 219.635 Q1490.17 216.58 1488.02 214.867 Q1485.89 213.131 1482.07 213.131 L1478.04 213.131 L1478.04 209.288 L1482.25 209.288 Q1485.7 209.288 1487.53 207.923 Q1489.36 206.534 1489.36 203.941 Q1489.36 201.279 1487.46 199.867 Q1485.59 198.432 1482.07 198.432 Q1480.15 198.432 1477.95 198.849 Q1475.75 199.265 1473.11 200.145 L1473.11 195.978 Q1475.77 195.237 1478.09 194.867 Q1480.43 194.497 1482.49 194.497 Q1487.81 194.497 1490.91 196.927 Q1494.01 199.335 1494.01 203.455 Q1494.01 206.325 1492.37 208.316 Q1490.73 210.284 1487.69 211.048 Z" fill="#000000" fill-rule="nonzero" fill-opacity="1" /><polyline clip-path="url(#clip780)" style="stroke:#e26f46; stroke-linecap:round; stroke-linejoin:round; stroke-width:8; stroke-opacity:1; fill:none" points="1179.39,264.242 1264.58,264.242 "/>
<path clip-path="url(#clip780)" d="M1278.78 246.962 L1283.46 246.962 L1283.46 261.568 L1298.97 246.962 L1304.99 246.962 L1287.83 263.073 L1306.21 281.522 L1300.06 281.522 L1283.46 264.878 L1283.46 281.522 L1278.78 281.522 L1278.78 246.962 Z" fill="#000000" fill-rule="nonzero" fill-opacity="1" /><path clip-path="url(#clip780)" d="M1325.84 275.642 L1330.73 275.642 L1330.73 281.522 L1325.84 281.522 L1325.84 275.642 M1325.84 257.008 L1330.73 257.008 L1330.73 262.888 L1325.84 262.888 L1325.84 257.008 Z" fill="#000000" fill-rule="nonzero" fill-opacity="1" /><path clip-path="url(#clip780)" d="M1370.57 262.888 Q1373.92 263.605 1375.8 265.874 Q1377.7 268.142 1377.7 271.475 Q1377.7 276.591 1374.18 279.392 Q1370.66 282.193 1364.18 282.193 Q1362 282.193 1359.69 281.753 Q1357.39 281.337 1354.94 280.48 L1354.94 275.966 Q1356.89 277.1 1359.2 277.679 Q1361.51 278.258 1364.04 278.258 Q1368.44 278.258 1370.73 276.522 Q1373.04 274.786 1373.04 271.475 Q1373.04 268.42 1370.89 266.707 Q1368.76 264.971 1364.94 264.971 L1360.91 264.971 L1360.91 261.128 L1365.13 261.128 Q1368.57 261.128 1370.4 259.763 Q1372.23 258.374 1372.23 255.781 Q1372.23 253.119 1370.33 251.707 Q1368.46 250.272 1364.94 250.272 Q1363.02 250.272 1360.82 250.689 Q1358.62 251.105 1355.98 251.985 L1355.98 247.818 Q1358.64 247.077 1360.96 246.707 Q1363.3 246.337 1365.36 246.337 Q1370.68 246.337 1373.78 248.767 Q1376.89 251.175 1376.89 255.295 Q1376.89 258.165 1375.24 260.156 Q1373.6 262.124 1370.57 262.888 Z" fill="#000000" fill-rule="nonzero" fill-opacity="1" /><path clip-path="url(#clip780)" d="M1398.88 266.638 L1411.35 266.638 L1411.35 270.434 L1398.88 270.434 L1398.88 266.638 Z" fill="#000000" fill-rule="nonzero" fill-opacity="1" /><path clip-path="url(#clip780)" d="M1418.69 258.189 L1418.69 253.976 L1448.37 264.739 L1448.37 268.582 L1418.69 279.346 L1418.69 275.133 L1442.53 266.684 L1418.69 258.189 Z" fill="#000000" fill-rule="nonzero" fill-opacity="1" /><path clip-path="url(#clip780)" d="M1486.38 251.036 L1474.57 269.485 L1486.38 269.485 L1486.38 251.036 M1485.15 246.962 L1491.03 246.962 L1491.03 269.485 L1495.96 269.485 L1495.96 273.374 L1491.03 273.374 L1491.03 281.522 L1486.38 281.522 L1486.38 273.374 L1470.77 273.374 L1470.77 268.86 L1485.15 246.962 Z" fill="#000000" fill-rule="nonzero" fill-opacity="1" /><polyline clip-path="url(#clip780)" style="stroke:#3da44d; stroke-linecap:round; stroke-linejoin:round; stroke-width:8; stroke-opacity:1; fill:none" points="1179.39,316.082 1264.58,316.082 "/>
<path clip-path="url(#clip780)" d="M1278.78 298.802 L1283.46 298.802 L1283.46 313.408 L1298.97 298.802 L1304.99 298.802 L1287.83 314.913 L1306.21 333.362 L1300.06 333.362 L1283.46 316.718 L1283.46 333.362 L1278.78 333.362 L1278.78 298.802 Z" fill="#000000" fill-rule="nonzero" fill-opacity="1" /><path clip-path="url(#clip780)" d="M1325.84 327.482 L1330.73 327.482 L1330.73 333.362 L1325.84 333.362 L1325.84 327.482 M1325.84 308.848 L1330.73 308.848 L1330.73 314.728 L1325.84 314.728 L1325.84 308.848 Z" fill="#000000" fill-rule="nonzero" fill-opacity="1" /><path clip-path="url(#clip780)" d="M1369.25 302.876 L1357.44 321.325 L1369.25 321.325 L1369.25 302.876 M1368.02 298.802 L1373.9 298.802 L1373.9 321.325 L1378.83 321.325 L1378.83 325.214 L1373.9 325.214 L1373.9 333.362 L1369.25 333.362 L1369.25 325.214 L1353.64 325.214 L1353.64 320.7 L1368.02 298.802 Z" fill="#000000" fill-rule="nonzero" fill-opacity="1" /><path clip-path="url(#clip780)" d="M1398.88 318.478 L1411.35 318.478 L1411.35 322.274 L1398.88 322.274 L1398.88 318.478 Z" fill="#000000" fill-rule="nonzero" fill-opacity="1" /><path clip-path="url(#clip780)" d="M1418.69 310.029 L1418.69 305.816 L1448.37 316.579 L1448.37 320.422 L1418.69 331.186 L1418.69 326.973 L1442.53 318.524 L1418.69 310.029 Z" fill="#000000" fill-rule="nonzero" fill-opacity="1" /><path clip-path="url(#clip780)" d="M1473.57 298.802 L1491.93 298.802 L1491.93 302.737 L1477.86 302.737 L1477.86 311.209 Q1478.88 310.862 1479.89 310.7 Q1480.91 310.515 1481.93 310.515 Q1487.72 310.515 1491.1 313.686 Q1494.48 316.857 1494.48 322.274 Q1494.48 327.852 1491 330.954 Q1487.53 334.033 1481.21 334.033 Q1479.04 334.033 1476.77 333.663 Q1474.52 333.292 1472.12 332.552 L1472.12 327.852 Q1474.2 328.987 1476.42 329.542 Q1478.64 330.098 1481.12 330.098 Q1485.13 330.098 1487.46 327.991 Q1489.8 325.885 1489.8 322.274 Q1489.8 318.663 1487.46 316.556 Q1485.13 314.45 1481.12 314.45 Q1479.25 314.45 1477.37 314.866 Q1475.52 315.283 1473.57 316.163 L1473.57 298.802 Z" fill="#000000" fill-rule="nonzero" fill-opacity="1" /><polyline clip-path="url(#clip780)" style="stroke:#c271d2; stroke-linecap:round; stroke-linejoin:round; stroke-width:8; stroke-opacity:1; fill:none" points="1179.39,367.922 1264.58,367.922 "/>
<path clip-path="url(#clip780)" d="M1278.78 350.642 L1283.46 350.642 L1283.46 365.248 L1298.97 350.642 L1304.99 350.642 L1287.83 366.753 L1306.21 385.202 L1300.06 385.202 L1283.46 368.558 L1283.46 385.202 L1278.78 385.202 L1278.78 350.642 Z" fill="#000000" fill-rule="nonzero" fill-opacity="1" /><path clip-path="url(#clip780)" d="M1325.84 379.322 L1330.73 379.322 L1330.73 385.202 L1325.84 385.202 L1325.84 379.322 M1325.84 360.688 L1330.73 360.688 L1330.73 366.568 L1325.84 366.568 L1325.84 360.688 Z" fill="#000000" fill-rule="nonzero" fill-opacity="1" /><path clip-path="url(#clip780)" d="M1356.45 350.642 L1374.8 350.642 L1374.8 354.577 L1360.73 354.577 L1360.73 363.049 Q1361.75 362.702 1362.76 362.54 Q1363.78 362.355 1364.8 362.355 Q1370.59 362.355 1373.97 365.526 Q1377.35 368.697 1377.35 374.114 Q1377.35 379.692 1373.88 382.794 Q1370.4 385.873 1364.08 385.873 Q1361.91 385.873 1359.64 385.503 Q1357.39 385.132 1354.99 384.392 L1354.99 379.692 Q1357.07 380.827 1359.29 381.382 Q1361.51 381.938 1363.99 381.938 Q1368 381.938 1370.33 379.831 Q1372.67 377.725 1372.67 374.114 Q1372.67 370.503 1370.33 368.396 Q1368 366.29 1363.99 366.29 Q1362.12 366.29 1360.24 366.706 Q1358.39 367.123 1356.45 368.003 L1356.45 350.642 Z" fill="#000000" fill-rule="nonzero" fill-opacity="1" /><path clip-path="url(#clip780)" d="M1398.88 370.318 L1411.35 370.318 L1411.35 374.114 L1398.88 374.114 L1398.88 370.318 Z" fill="#000000" fill-rule="nonzero" fill-opacity="1" /><path clip-path="url(#clip780)" d="M1418.69 361.869 L1418.69 357.656 L1448.37 368.419 L1448.37 372.262 L1418.69 383.026 L1418.69 378.813 L1442.53 370.364 L1418.69 361.869 Z" fill="#000000" fill-rule="nonzero" fill-opacity="1" /><path clip-path="url(#clip780)" d="M1484.11 366.058 Q1480.96 366.058 1479.11 368.211 Q1477.28 370.364 1477.28 374.114 Q1477.28 377.841 1479.11 380.017 Q1480.96 382.169 1484.11 382.169 Q1487.25 382.169 1489.08 380.017 Q1490.94 377.841 1490.94 374.114 Q1490.94 370.364 1489.08 368.211 Q1487.25 366.058 1484.11 366.058 M1493.39 351.406 L1493.39 355.665 Q1491.63 354.832 1489.82 354.392 Q1488.04 353.952 1486.28 353.952 Q1481.65 353.952 1479.2 357.077 Q1476.77 360.202 1476.42 366.521 Q1477.79 364.507 1479.85 363.443 Q1481.91 362.355 1484.38 362.355 Q1489.59 362.355 1492.6 365.526 Q1495.63 368.674 1495.63 374.114 Q1495.63 379.438 1492.49 382.655 Q1489.34 385.873 1484.11 385.873 Q1478.11 385.873 1474.94 381.29 Q1471.77 376.683 1471.77 367.956 Q1471.77 359.762 1475.66 354.901 Q1479.55 350.017 1486.1 350.017 Q1487.86 350.017 1489.64 350.364 Q1491.44 350.711 1493.39 351.406 Z" fill="#000000" fill-rule="nonzero" fill-opacity="1" /><polyline clip-path="url(#clip780)" style="stroke:#ac8d18; stroke-linecap:round; stroke-linejoin:round; stroke-width:8; stroke-opacity:1; fill:none" points="1179.39,419.762 1264.58,419.762 "/>
<path clip-path="url(#clip780)" d="M1278.78 402.482 L1283.46 402.482 L1283.46 417.088 L1298.97 402.482 L1304.99 402.482 L1287.83 418.593 L1306.21 437.042 L1300.06 437.042 L1283.46 420.398 L1283.46 437.042 L1278.78 437.042 L1278.78 402.482 Z" fill="#000000" fill-rule="nonzero" fill-opacity="1" /><path clip-path="url(#clip780)" d="M1325.84 431.162 L1330.73 431.162 L1330.73 437.042 L1325.84 437.042 L1325.84 431.162 M1325.84 412.528 L1330.73 412.528 L1330.73 418.408 L1325.84 418.408 L1325.84 412.528 Z" fill="#000000" fill-rule="nonzero" fill-opacity="1" /><path clip-path="url(#clip780)" d="M1366.98 417.898 Q1363.83 417.898 1361.98 420.051 Q1360.15 422.204 1360.15 425.954 Q1360.15 429.681 1361.98 431.857 Q1363.83 434.009 1366.98 434.009 Q1370.13 434.009 1371.95 431.857 Q1373.81 429.681 1373.81 425.954 Q1373.81 422.204 1371.95 420.051 Q1370.13 417.898 1366.98 417.898 M1376.26 403.246 L1376.26 407.505 Q1374.5 406.672 1372.7 406.232 Q1370.91 405.792 1369.15 405.792 Q1364.52 405.792 1362.07 408.917 Q1359.64 412.042 1359.29 418.361 Q1360.66 416.347 1362.72 415.283 Q1364.78 414.195 1367.26 414.195 Q1372.46 414.195 1375.47 417.366 Q1378.51 420.514 1378.51 425.954 Q1378.51 431.278 1375.36 434.495 Q1372.21 437.713 1366.98 437.713 Q1360.98 437.713 1357.81 433.13 Q1354.64 428.523 1354.64 419.796 Q1354.64 411.602 1358.53 406.741 Q1362.42 401.857 1368.97 401.857 Q1370.73 401.857 1372.51 402.204 Q1374.32 402.551 1376.26 403.246 Z" fill="#000000" fill-rule="nonzero" fill-opacity="1" /><path clip-path="url(#clip780)" d="M1398.88 422.158 L1411.35 422.158 L1411.35 425.954 L1398.88 425.954 L1398.88 422.158 Z" fill="#000000" fill-rule="nonzero" fill-opacity="1" /><path clip-path="url(#clip780)" d="M1418.69 413.709 L1418.69 409.496 L1448.37 420.259 L1448.37 424.102 L1418.69 434.866 L1418.69 430.653 L1442.53 422.204 L1418.69 413.709 Z" fill="#000000" fill-rule="nonzero" fill-opacity="1" /><path clip-path="url(#clip780)" d="M1472.35 402.482 L1494.57 402.482 L1494.57 404.472 L1482.02 437.042 L1477.14 437.042 L1488.94 406.417 L1472.35 406.417 L1472.35 402.482 Z" fill="#000000" fill-rule="nonzero" fill-opacity="1" /></svg>
